<svg xmlns="http://www.w3.org/2000/svg" xmlns:xlink="http://www.w3.org/1999/xlink" width="6912" zoomAndPan="magnify" viewBox="0 0 5184 2592.000001" height="3456" preserveAspectRatio="xMidYMid meet" version="1.0"><defs><filter x="0%" y="0%" width="100%" height="100%" id="b33a3ff1f3"><feColorMatrix values="0 0 0 0 1 0 0 0 0 1 0 0 0 0 1 0 0 0 1 0" color-interpolation-filters="sRGB"/></filter><g/><clipPath id="e165b6888f"><rect x="0" width="3642" y="0" height="144"/></clipPath><clipPath id="4ae0e76802"><path d="M 627.855469 738.023438 L 1274 738.023438 L 1274 1384.273438 L 627.855469 1384.273438 Z M 627.855469 738.023438 " clip-rule="nonzero"/></clipPath><clipPath id="90e284f1a2"><path d="M 430.703125 1210.476562 L 1074.707031 1210.476562 L 1074.707031 1854.480469 L 430.703125 1854.480469 Z M 430.703125 1210.476562 " clip-rule="nonzero"/></clipPath><clipPath id="5d0ee361aa"><path d="M 879.707031 1396.027344 L 1530.457031 1396.027344 L 1530.457031 2046.773438 L 879.707031 2046.773438 Z M 879.707031 1396.027344 " clip-rule="nonzero"/></clipPath><mask id="0c4f11e881"><g filter="url(#b33a3ff1f3)"><rect x="-518.4" width="6220.8" fill="#000000" y="-259.2" height="3110.400001" fill-opacity="0.92"/></g></mask><clipPath id="78e42a9742"><path d="M 0.90625 0.679688 L 111 0.679688 L 111 110.886719 L 0.90625 110.886719 Z M 0.90625 0.679688 " clip-rule="nonzero"/></clipPath><clipPath id="86be6b1514"><rect x="0" width="112" y="0" height="111"/></clipPath><mask id="f5e9a8b990"><g filter="url(#b33a3ff1f3)"><rect x="-518.4" width="6220.8" fill="#000000" y="-259.2" height="3110.400001" fill-opacity="0.92"/></g></mask><clipPath id="ac36311ee0"><path d="M 0.703125 0.476562 L 217.371094 0.476562 L 217.371094 217.144531 L 0.703125 217.144531 Z M 0.703125 0.476562 " clip-rule="nonzero"/></clipPath><clipPath id="454d59c80b"><rect x="0" width="218" y="0" height="218"/></clipPath><mask id="a8fcccc4e1"><g filter="url(#b33a3ff1f3)"><rect x="-518.4" width="6220.8" fill="#000000" y="-259.2" height="3110.400001" fill-opacity="0.92"/></g></mask><clipPath id="d76a62b679"><path d="M 0.703125 0.683594 L 219.621094 0.683594 L 219.621094 219.597656 L 0.703125 219.597656 Z M 0.703125 0.683594 " clip-rule="nonzero"/></clipPath><clipPath id="a7170d7ebb"><rect x="0" width="220" y="0" height="220"/></clipPath><mask id="c15351d9a8"><g filter="url(#b33a3ff1f3)"><rect x="-518.4" width="6220.8" fill="#000000" y="-259.2" height="3110.400001" fill-opacity="0.92"/></g></mask><clipPath id="d0fa64e5e9"><path d="M 0.875 1.023438 L 215 1.023438 L 215 215.433594 L 0.875 215.433594 Z M 0.875 1.023438 " clip-rule="nonzero"/></clipPath><clipPath id="c3bcb8b087"><rect x="0" width="216" y="0" height="216"/></clipPath><mask id="ce7650f65e"><g filter="url(#b33a3ff1f3)"><rect x="-518.4" width="6220.8" fill="#000000" y="-259.2" height="3110.400001" fill-opacity="0.92"/></g></mask><clipPath id="21ee35a72c"><path d="M 0.855469 1.023438 L 218.269531 1.023438 L 218.269531 218.4375 L 0.855469 218.4375 Z M 0.855469 1.023438 " clip-rule="nonzero"/></clipPath><clipPath id="e37325cc84"><rect x="0" width="219" y="0" height="220"/></clipPath><mask id="ac4ba6aee9"><g filter="url(#b33a3ff1f3)"><rect x="-518.4" width="6220.8" fill="#000000" y="-259.2" height="3110.400001" fill-opacity="0.92"/></g></mask><clipPath id="93cad22b22"><path d="M 0.589844 0.332031 L 110 0.332031 L 110 109.789062 L 0.589844 109.789062 Z M 0.589844 0.332031 " clip-rule="nonzero"/></clipPath><clipPath id="81a1e8c62e"><rect x="0" width="111" y="0" height="110"/></clipPath><mask id="cc1eb83214"><g filter="url(#b33a3ff1f3)"><rect x="-518.4" width="6220.8" fill="#000000" y="-259.2" height="3110.400001" fill-opacity="0.92"/></g></mask><clipPath id="9213f73edc"><path d="M 1.011719 0.929688 L 213.929688 0.929688 L 213.929688 213.847656 L 1.011719 213.847656 Z M 1.011719 0.929688 " clip-rule="nonzero"/></clipPath><clipPath id="495a4e8ef9"><rect x="0" width="215" y="0" height="215"/></clipPath><mask id="3b20872297"><g filter="url(#b33a3ff1f3)"><rect x="-518.4" width="6220.8" fill="#000000" y="-259.2" height="3110.400001" fill-opacity="0.92"/></g></mask><clipPath id="1823002221"><path d="M 0.90625 0.972656 L 111 0.972656 L 111 111.179688 L 0.90625 111.179688 Z M 0.90625 0.972656 " clip-rule="nonzero"/></clipPath><clipPath id="e1f6a6230a"><rect x="0" width="112" y="0" height="112"/></clipPath><mask id="a76cd89726"><g filter="url(#b33a3ff1f3)"><rect x="-518.4" width="6220.8" fill="#000000" y="-259.2" height="3110.400001" fill-opacity="0.92"/></g></mask><clipPath id="3bbf7c4e28"><path d="M 0.683594 0.601562 L 111.640625 0.601562 L 111.640625 111.558594 L 0.683594 111.558594 Z M 0.683594 0.601562 " clip-rule="nonzero"/></clipPath><clipPath id="3054446759"><rect x="0" width="112" y="0" height="112"/></clipPath><clipPath id="357787ee93"><rect x="0" width="3967" y="0" height="435"/></clipPath></defs><g transform="matrix(1, 0, 0, 1, 1370, 1460)"><g clip-path="url(#e165b6888f)"><g fill="#010101" fill-opacity="1"><g transform="translate(0.437162, 108.883233)"><g><path d="M 23.828125 0.109375 L 2.84375 -76.53125 L 12.6875 -76.53125 L 29.1875 -10.828125 L 48 -76.53125 L 58.15625 -76.53125 L 76.421875 -10.828125 L 93.140625 -76.53125 L 102.984375 -76.53125 L 81.5625 0 L 71.0625 0 L 52.8125 -63.1875 L 34.109375 0 Z M 23.828125 0.109375 "/></g></g></g><g fill="#010101" fill-opacity="1"><g transform="translate(106.160012, 108.883233)"><g><path d="M 7.546875 0 L 7.546875 -78.71875 L 16.734375 -78.71875 L 16.734375 -44.9375 C 18.546875 -48.289062 21.128906 -50.894531 24.484375 -52.75 C 27.835938 -54.601562 31.484375 -55.53125 35.421875 -55.53125 C 41.691406 -55.53125 46.71875 -53.582031 50.5 -49.6875 C 54.289062 -45.789062 56.1875 -39.796875 56.1875 -31.703125 L 56.1875 0 L 47.125 0 L 47.125 -30.71875 C 47.125 -42.019531 42.566406 -47.671875 33.453125 -47.671875 C 28.710938 -47.671875 24.738281 -45.972656 21.53125 -42.578125 C 18.332031 -39.191406 16.734375 -34.363281 16.734375 -28.09375 L 16.734375 0 Z M 7.546875 0 "/></g></g></g><g fill="#010101" fill-opacity="1"><g transform="translate(168.697208, 108.883233)"><g><path d="M 31.921875 1.3125 C 26.742188 1.3125 22.148438 0.128906 18.140625 -2.234375 C 14.140625 -4.609375 10.988281 -7.90625 8.6875 -12.125 C 6.394531 -16.351562 5.25 -21.347656 5.25 -27.109375 C 5.25 -32.796875 6.378906 -37.769531 8.640625 -42.03125 C 10.898438 -46.300781 14.050781 -49.617188 18.09375 -51.984375 C 22.132812 -54.347656 26.816406 -55.53125 32.140625 -55.53125 C 37.390625 -55.53125 41.925781 -54.347656 45.75 -51.984375 C 49.582031 -49.617188 52.515625 -46.503906 54.546875 -42.640625 C 56.585938 -38.773438 57.609375 -34.617188 57.609375 -30.171875 C 57.609375 -29.367188 57.585938 -28.566406 57.546875 -27.765625 C 57.515625 -26.960938 57.5 -26.050781 57.5 -25.03125 L 14.328125 -25.03125 C 14.546875 -20.875 15.507812 -17.429688 17.21875 -14.703125 C 18.925781 -11.972656 21.070312 -9.914062 23.65625 -8.53125 C 26.25 -7.144531 29.003906 -6.453125 31.921875 -6.453125 C 35.710938 -6.453125 38.882812 -7.328125 41.4375 -9.078125 C 43.988281 -10.828125 45.847656 -13.195312 47.015625 -16.1875 L 56.078125 -16.1875 C 54.628906 -11.15625 51.84375 -6.976562 47.71875 -3.65625 C 43.601562 -0.34375 38.335938 1.3125 31.921875 1.3125 Z M 31.921875 -47.78125 C 27.546875 -47.78125 23.664062 -46.445312 20.28125 -43.78125 C 16.894531 -41.125 14.945312 -37.242188 14.4375 -32.140625 L 48.546875 -32.140625 C 48.328125 -37.023438 46.648438 -40.851562 43.515625 -43.625 C 40.378906 -46.394531 36.515625 -47.78125 31.921875 -47.78125 Z M 31.921875 -47.78125 "/></g></g></g><g fill="#010101" fill-opacity="1"><g transform="translate(230.906407, 108.883233)"><g><path d="M 7.546875 0 L 7.546875 -54.234375 L 15.859375 -54.234375 L 16.625 -43.84375 C 18.289062 -47.414062 20.835938 -50.253906 24.265625 -52.359375 C 27.691406 -54.472656 31.921875 -55.53125 36.953125 -55.53125 L 36.953125 -45.921875 L 34.4375 -45.921875 C 31.226562 -45.921875 28.273438 -45.351562 25.578125 -44.21875 C 22.878906 -43.09375 20.726562 -41.179688 19.125 -38.484375 C 17.53125 -35.785156 16.734375 -32.066406 16.734375 -27.328125 L 16.734375 0 Z M 7.546875 0 "/></g></g></g><g fill="#010101" fill-opacity="1"><g transform="translate(268.516175, 108.883233)"><g><path d="M 31.921875 1.3125 C 26.742188 1.3125 22.148438 0.128906 18.140625 -2.234375 C 14.140625 -4.609375 10.988281 -7.90625 8.6875 -12.125 C 6.394531 -16.351562 5.25 -21.347656 5.25 -27.109375 C 5.25 -32.796875 6.378906 -37.769531 8.640625 -42.03125 C 10.898438 -46.300781 14.050781 -49.617188 18.09375 -51.984375 C 22.132812 -54.347656 26.816406 -55.53125 32.140625 -55.53125 C 37.390625 -55.53125 41.925781 -54.347656 45.75 -51.984375 C 49.582031 -49.617188 52.515625 -46.503906 54.546875 -42.640625 C 56.585938 -38.773438 57.609375 -34.617188 57.609375 -30.171875 C 57.609375 -29.367188 57.585938 -28.566406 57.546875 -27.765625 C 57.515625 -26.960938 57.5 -26.050781 57.5 -25.03125 L 14.328125 -25.03125 C 14.546875 -20.875 15.507812 -17.429688 17.21875 -14.703125 C 18.925781 -11.972656 21.070312 -9.914062 23.65625 -8.53125 C 26.25 -7.144531 29.003906 -6.453125 31.921875 -6.453125 C 35.710938 -6.453125 38.882812 -7.328125 41.4375 -9.078125 C 43.988281 -10.828125 45.847656 -13.195312 47.015625 -16.1875 L 56.078125 -16.1875 C 54.628906 -11.15625 51.84375 -6.976562 47.71875 -3.65625 C 43.601562 -0.34375 38.335938 1.3125 31.921875 1.3125 Z M 31.921875 -47.78125 C 27.546875 -47.78125 23.664062 -46.445312 20.28125 -43.78125 C 16.894531 -41.125 14.945312 -37.242188 14.4375 -32.140625 L 48.546875 -32.140625 C 48.328125 -37.023438 46.648438 -40.851562 43.515625 -43.625 C 40.378906 -46.394531 36.515625 -47.78125 31.921875 -47.78125 Z M 31.921875 -47.78125 "/></g></g></g><g fill="#010101" fill-opacity="1"><g transform="translate(330.725375, 108.883233)"><g/></g></g><g fill="#010101" fill-opacity="1"><g transform="translate(359.698023, 108.883233)"><g><path d="M 7.546875 24.046875 L 7.546875 -54.234375 L 15.859375 -54.234375 L 16.734375 -45.265625 C 18.472656 -47.890625 20.960938 -50.253906 24.203125 -52.359375 C 27.453125 -54.472656 31.59375 -55.53125 36.625 -55.53125 C 42.019531 -55.53125 46.71875 -54.289062 50.71875 -51.8125 C 54.726562 -49.34375 57.84375 -45.957031 60.0625 -41.65625 C 62.289062 -37.351562 63.40625 -32.46875 63.40625 -27 C 63.40625 -21.53125 62.289062 -16.664062 60.0625 -12.40625 C 57.84375 -8.144531 54.710938 -4.789062 50.671875 -2.34375 C 46.628906 0.09375 41.910156 1.3125 36.515625 1.3125 C 32.066406 1.3125 28.109375 0.398438 24.640625 -1.421875 C 21.179688 -3.242188 18.546875 -5.796875 16.734375 -9.078125 L 16.734375 24.046875 Z M 35.53125 -6.671875 C 39.175781 -6.671875 42.382812 -7.523438 45.15625 -9.234375 C 47.925781 -10.953125 50.113281 -13.335938 51.71875 -16.390625 C 53.320312 -19.453125 54.125 -23.023438 54.125 -27.109375 C 54.125 -31.191406 53.320312 -34.765625 51.71875 -37.828125 C 50.113281 -40.890625 47.925781 -43.273438 45.15625 -44.984375 C 42.382812 -46.703125 39.175781 -47.5625 35.53125 -47.5625 C 31.882812 -47.5625 28.675781 -46.703125 25.90625 -44.984375 C 23.132812 -43.273438 20.945312 -40.890625 19.34375 -37.828125 C 17.75 -34.765625 16.953125 -31.191406 16.953125 -27.109375 C 16.953125 -23.023438 17.75 -19.453125 19.34375 -16.390625 C 20.945312 -13.335938 23.132812 -10.953125 25.90625 -9.234375 C 28.675781 -7.523438 31.882812 -6.671875 35.53125 -6.671875 Z M 35.53125 -6.671875 "/></g></g></g><g fill="#010101" fill-opacity="1"><g transform="translate(428.357728, 108.883233)"><g><path d="M 7.546875 0 L 7.546875 -54.234375 L 15.859375 -54.234375 L 16.625 -43.84375 C 18.289062 -47.414062 20.835938 -50.253906 24.265625 -52.359375 C 27.691406 -54.472656 31.921875 -55.53125 36.953125 -55.53125 L 36.953125 -45.921875 L 34.4375 -45.921875 C 31.226562 -45.921875 28.273438 -45.351562 25.578125 -44.21875 C 22.878906 -43.09375 20.726562 -41.179688 19.125 -38.484375 C 17.53125 -35.785156 16.734375 -32.066406 16.734375 -27.328125 L 16.734375 0 Z M 7.546875 0 "/></g></g></g><g fill="#010101" fill-opacity="1"><g transform="translate(465.967537, 108.883233)"><g><path d="M 32.25 1.3125 C 27.144531 1.3125 22.550781 0.144531 18.46875 -2.1875 C 14.394531 -4.519531 11.171875 -7.816406 8.796875 -12.078125 C 6.429688 -16.335938 5.25 -21.347656 5.25 -27.109375 C 5.25 -32.867188 6.453125 -37.878906 8.859375 -42.140625 C 11.265625 -46.410156 14.523438 -49.707031 18.640625 -52.03125 C 22.753906 -54.363281 27.363281 -55.53125 32.46875 -55.53125 C 37.570312 -55.53125 42.164062 -54.363281 46.25 -52.03125 C 50.332031 -49.707031 53.554688 -46.410156 55.921875 -42.140625 C 58.285156 -37.878906 59.46875 -32.867188 59.46875 -27.109375 C 59.46875 -21.347656 58.265625 -16.335938 55.859375 -12.078125 C 53.460938 -7.816406 50.203125 -4.519531 46.078125 -2.1875 C 41.960938 0.144531 37.351562 1.3125 32.25 1.3125 Z M 32.25 -6.5625 C 35.382812 -6.5625 38.300781 -7.328125 41 -8.859375 C 43.695312 -10.390625 45.882812 -12.679688 47.5625 -15.734375 C 49.238281 -18.796875 50.078125 -22.585938 50.078125 -27.109375 C 50.078125 -31.628906 49.253906 -35.421875 47.609375 -38.484375 C 45.972656 -41.546875 43.804688 -43.84375 41.109375 -45.375 C 38.410156 -46.90625 35.53125 -47.671875 32.46875 -47.671875 C 29.332031 -47.671875 26.414062 -46.90625 23.71875 -45.375 C 21.019531 -43.84375 18.832031 -41.546875 17.15625 -38.484375 C 15.488281 -35.421875 14.65625 -31.628906 14.65625 -27.109375 C 14.65625 -22.585938 15.488281 -18.796875 17.15625 -15.734375 C 18.832031 -12.679688 21 -10.390625 23.65625 -8.859375 C 26.320312 -7.328125 29.1875 -6.5625 32.25 -6.5625 Z M 32.25 -6.5625 "/></g></g></g><g fill="#010101" fill-opacity="1"><g transform="translate(528.395364, 108.883233)"><g><path d="M 2.078125 0 L 20.875 -27.109375 L 2.078125 -54.234375 L 12.03125 -54.234375 L 27.21875 -31.8125 L 42.53125 -54.234375 L 52.375 -54.234375 L 33.5625 -27.109375 L 52.375 0 L 42.53125 0 L 27.21875 -22.40625 L 12.03125 0 Z M 2.078125 0 "/></g></g></g><g fill="#010101" fill-opacity="1"><g transform="translate(582.842077, 108.883233)"><g><path d="M 13.125 -66.25 C 11.300781 -66.25 9.785156 -66.847656 8.578125 -68.046875 C 7.378906 -69.253906 6.78125 -70.769531 6.78125 -72.59375 C 6.78125 -74.34375 7.378906 -75.800781 8.578125 -76.96875 C 9.785156 -78.132812 11.300781 -78.71875 13.125 -78.71875 C 14.875 -78.71875 16.363281 -78.132812 17.59375 -76.96875 C 18.832031 -75.800781 19.453125 -74.34375 19.453125 -72.59375 C 19.453125 -70.769531 18.832031 -69.253906 17.59375 -68.046875 C 16.363281 -66.847656 14.875 -66.25 13.125 -66.25 Z M 8.53125 0 L 8.53125 -54.234375 L 17.71875 -54.234375 L 17.71875 0 Z M 8.53125 0 "/></g></g></g><g fill="#010101" fill-opacity="1"><g transform="translate(608.972133, 108.883233)"><g><path d="M 7.546875 0 L 7.546875 -54.234375 L 15.859375 -54.234375 L 16.515625 -46.359375 C 18.253906 -49.273438 20.582031 -51.53125 23.5 -53.125 C 26.414062 -54.726562 29.695312 -55.53125 33.34375 -55.53125 C 37.644531 -55.53125 41.34375 -54.65625 44.4375 -52.90625 C 47.539062 -51.164062 49.929688 -48.507812 51.609375 -44.9375 C 53.503906 -48.21875 56.109375 -50.800781 59.421875 -52.6875 C 62.734375 -54.582031 66.320312 -55.53125 70.1875 -55.53125 C 76.675781 -55.53125 81.847656 -53.582031 85.703125 -49.6875 C 89.566406 -45.789062 91.5 -39.796875 91.5 -31.703125 L 91.5 0 L 82.4375 0 L 82.4375 -30.71875 C 82.4375 -36.332031 81.304688 -40.5625 79.046875 -43.40625 C 76.785156 -46.25 73.539062 -47.671875 69.3125 -47.671875 C 64.9375 -47.671875 61.3125 -45.972656 58.4375 -42.578125 C 55.5625 -39.191406 54.125 -34.363281 54.125 -28.09375 L 54.125 0 L 44.9375 0 L 44.9375 -30.71875 C 44.9375 -36.332031 43.804688 -40.5625 41.546875 -43.40625 C 39.285156 -46.25 36.039062 -47.671875 31.8125 -47.671875 C 27.507812 -47.671875 23.921875 -45.972656 21.046875 -42.578125 C 18.171875 -39.191406 16.734375 -34.363281 16.734375 -28.09375 L 16.734375 0 Z M 7.546875 0 "/></g></g></g><g fill="#010101" fill-opacity="1"><g transform="translate(706.823169, 108.883233)"><g><path d="M 13.125 -66.25 C 11.300781 -66.25 9.785156 -66.847656 8.578125 -68.046875 C 7.378906 -69.253906 6.78125 -70.769531 6.78125 -72.59375 C 6.78125 -74.34375 7.378906 -75.800781 8.578125 -76.96875 C 9.785156 -78.132812 11.300781 -78.71875 13.125 -78.71875 C 14.875 -78.71875 16.363281 -78.132812 17.59375 -76.96875 C 18.832031 -75.800781 19.453125 -74.34375 19.453125 -72.59375 C 19.453125 -70.769531 18.832031 -69.253906 17.59375 -68.046875 C 16.363281 -66.847656 14.875 -66.25 13.125 -66.25 Z M 8.53125 0 L 8.53125 -54.234375 L 17.71875 -54.234375 L 17.71875 0 Z M 8.53125 0 "/></g></g></g><g fill="#010101" fill-opacity="1"><g transform="translate(732.953224, 108.883233)"><g><path d="M 28.96875 0 C 24.007812 0 20.109375 -1.203125 17.265625 -3.609375 C 14.429688 -6.015625 13.015625 -10.351562 13.015625 -16.625 L 13.015625 -46.46875 L 3.609375 -46.46875 L 3.609375 -54.234375 L 13.015625 -54.234375 L 14.21875 -67.234375 L 22.1875 -67.234375 L 22.1875 -54.234375 L 38.15625 -54.234375 L 38.15625 -46.46875 L 22.1875 -46.46875 L 22.1875 -16.625 C 22.1875 -13.195312 22.878906 -10.878906 24.265625 -9.671875 C 25.648438 -8.472656 28.09375 -7.875 31.59375 -7.875 L 37.28125 -7.875 L 37.28125 0 Z M 28.96875 0 "/></g></g></g><g fill="#010101" fill-opacity="1"><g transform="translate(775.264219, 108.883233)"><g><path d="M 13.453125 24.046875 L 26.890625 -5.25 L 23.71875 -5.25 L 2.1875 -54.234375 L 12.140625 -54.234375 L 30.0625 -12.03125 L 49.09375 -54.234375 L 58.59375 -54.234375 L 23.0625 24.046875 Z M 13.453125 24.046875 "/></g></g></g><g fill="#010101" fill-opacity="1"><g transform="translate(836.052136, 108.883233)"><g/></g></g><g fill="#010101" fill-opacity="1"><g transform="translate(865.024812, 108.883233)"><g><path d="M 7.546875 0 L 7.546875 -54.234375 L 15.859375 -54.234375 L 16.515625 -46.359375 C 18.253906 -49.273438 20.582031 -51.53125 23.5 -53.125 C 26.414062 -54.726562 29.695312 -55.53125 33.34375 -55.53125 C 37.644531 -55.53125 41.34375 -54.65625 44.4375 -52.90625 C 47.539062 -51.164062 49.929688 -48.507812 51.609375 -44.9375 C 53.503906 -48.21875 56.109375 -50.800781 59.421875 -52.6875 C 62.734375 -54.582031 66.320312 -55.53125 70.1875 -55.53125 C 76.675781 -55.53125 81.847656 -53.582031 85.703125 -49.6875 C 89.566406 -45.789062 91.5 -39.796875 91.5 -31.703125 L 91.5 0 L 82.4375 0 L 82.4375 -30.71875 C 82.4375 -36.332031 81.304688 -40.5625 79.046875 -43.40625 C 76.785156 -46.25 73.539062 -47.671875 69.3125 -47.671875 C 64.9375 -47.671875 61.3125 -45.972656 58.4375 -42.578125 C 55.5625 -39.191406 54.125 -34.363281 54.125 -28.09375 L 54.125 0 L 44.9375 0 L 44.9375 -30.71875 C 44.9375 -36.332031 43.804688 -40.5625 41.546875 -43.40625 C 39.285156 -46.25 36.039062 -47.671875 31.8125 -47.671875 C 27.507812 -47.671875 23.921875 -45.972656 21.046875 -42.578125 C 18.171875 -39.191406 16.734375 -34.363281 16.734375 -28.09375 L 16.734375 0 Z M 7.546875 0 "/></g></g></g><g fill="#010101" fill-opacity="1"><g transform="translate(962.875848, 108.883233)"><g><path d="M 31.921875 1.3125 C 26.742188 1.3125 22.148438 0.128906 18.140625 -2.234375 C 14.140625 -4.609375 10.988281 -7.90625 8.6875 -12.125 C 6.394531 -16.351562 5.25 -21.347656 5.25 -27.109375 C 5.25 -32.796875 6.378906 -37.769531 8.640625 -42.03125 C 10.898438 -46.300781 14.050781 -49.617188 18.09375 -51.984375 C 22.132812 -54.347656 26.816406 -55.53125 32.140625 -55.53125 C 37.390625 -55.53125 41.925781 -54.347656 45.75 -51.984375 C 49.582031 -49.617188 52.515625 -46.503906 54.546875 -42.640625 C 56.585938 -38.773438 57.609375 -34.617188 57.609375 -30.171875 C 57.609375 -29.367188 57.585938 -28.566406 57.546875 -27.765625 C 57.515625 -26.960938 57.5 -26.050781 57.5 -25.03125 L 14.328125 -25.03125 C 14.546875 -20.875 15.507812 -17.429688 17.21875 -14.703125 C 18.925781 -11.972656 21.070312 -9.914062 23.65625 -8.53125 C 26.25 -7.144531 29.003906 -6.453125 31.921875 -6.453125 C 35.710938 -6.453125 38.882812 -7.328125 41.4375 -9.078125 C 43.988281 -10.828125 45.847656 -13.195312 47.015625 -16.1875 L 56.078125 -16.1875 C 54.628906 -11.15625 51.84375 -6.976562 47.71875 -3.65625 C 43.601562 -0.34375 38.335938 1.3125 31.921875 1.3125 Z M 31.921875 -47.78125 C 27.546875 -47.78125 23.664062 -46.445312 20.28125 -43.78125 C 16.894531 -41.125 14.945312 -37.242188 14.4375 -32.140625 L 48.546875 -32.140625 C 48.328125 -37.023438 46.648438 -40.851562 43.515625 -43.625 C 40.378906 -46.394531 36.515625 -47.78125 31.921875 -47.78125 Z M 31.921875 -47.78125 "/></g></g></g><g fill="#010101" fill-opacity="1"><g transform="translate(1025.085076, 108.883233)"><g><path d="M 31.921875 1.3125 C 26.742188 1.3125 22.148438 0.128906 18.140625 -2.234375 C 14.140625 -4.609375 10.988281 -7.90625 8.6875 -12.125 C 6.394531 -16.351562 5.25 -21.347656 5.25 -27.109375 C 5.25 -32.796875 6.378906 -37.769531 8.640625 -42.03125 C 10.898438 -46.300781 14.050781 -49.617188 18.09375 -51.984375 C 22.132812 -54.347656 26.816406 -55.53125 32.140625 -55.53125 C 37.390625 -55.53125 41.925781 -54.347656 45.75 -51.984375 C 49.582031 -49.617188 52.515625 -46.503906 54.546875 -42.640625 C 56.585938 -38.773438 57.609375 -34.617188 57.609375 -30.171875 C 57.609375 -29.367188 57.585938 -28.566406 57.546875 -27.765625 C 57.515625 -26.960938 57.5 -26.050781 57.5 -25.03125 L 14.328125 -25.03125 C 14.546875 -20.875 15.507812 -17.429688 17.21875 -14.703125 C 18.925781 -11.972656 21.070312 -9.914062 23.65625 -8.53125 C 26.25 -7.144531 29.003906 -6.453125 31.921875 -6.453125 C 35.710938 -6.453125 38.882812 -7.328125 41.4375 -9.078125 C 43.988281 -10.828125 45.847656 -13.195312 47.015625 -16.1875 L 56.078125 -16.1875 C 54.628906 -11.15625 51.84375 -6.976562 47.71875 -3.65625 C 43.601562 -0.34375 38.335938 1.3125 31.921875 1.3125 Z M 31.921875 -47.78125 C 27.546875 -47.78125 23.664062 -46.445312 20.28125 -43.78125 C 16.894531 -41.125 14.945312 -37.242188 14.4375 -32.140625 L 48.546875 -32.140625 C 48.328125 -37.023438 46.648438 -40.851562 43.515625 -43.625 C 40.378906 -46.394531 36.515625 -47.78125 31.921875 -47.78125 Z M 31.921875 -47.78125 "/></g></g></g><g fill="#010101" fill-opacity="1"><g transform="translate(1085.435628, 108.883233)"><g><path d="M 28.96875 0 C 24.007812 0 20.109375 -1.203125 17.265625 -3.609375 C 14.429688 -6.015625 13.015625 -10.351562 13.015625 -16.625 L 13.015625 -46.46875 L 3.609375 -46.46875 L 3.609375 -54.234375 L 13.015625 -54.234375 L 14.21875 -67.234375 L 22.1875 -67.234375 L 22.1875 -54.234375 L 38.15625 -54.234375 L 38.15625 -46.46875 L 22.1875 -46.46875 L 22.1875 -16.625 C 22.1875 -13.195312 22.878906 -10.878906 24.265625 -9.671875 C 25.648438 -8.472656 28.09375 -7.875 31.59375 -7.875 L 37.28125 -7.875 L 37.28125 0 Z M 28.96875 0 "/></g></g></g><g fill="#010101" fill-opacity="1"><g transform="translate(1127.746623, 108.883233)"><g><path d="M 28.3125 1.3125 C 21.820312 1.3125 16.425781 -0.328125 12.125 -3.609375 C 7.832031 -6.890625 5.320312 -11.335938 4.59375 -16.953125 L 14 -16.953125 C 14.582031 -14.109375 16.09375 -11.644531 18.53125 -9.5625 C 20.96875 -7.488281 24.265625 -6.453125 28.421875 -6.453125 C 32.285156 -6.453125 35.128906 -7.269531 36.953125 -8.90625 C 38.773438 -10.550781 39.6875 -12.503906 39.6875 -14.765625 C 39.6875 -18.035156 38.5 -20.21875 36.125 -21.3125 C 33.757812 -22.40625 30.425781 -23.390625 26.125 -24.265625 C 23.207031 -24.847656 20.289062 -25.6875 17.375 -26.78125 C 14.46875 -27.875 12.03125 -29.421875 10.0625 -31.421875 C 8.09375 -33.429688 7.109375 -36.078125 7.109375 -39.359375 C 7.109375 -44.097656 8.875 -47.976562 12.40625 -51 C 15.945312 -54.019531 20.738281 -55.53125 26.78125 -55.53125 C 32.539062 -55.53125 37.257812 -54.09375 40.9375 -51.21875 C 44.625 -48.34375 46.757812 -44.242188 47.34375 -38.921875 L 38.265625 -38.921875 C 37.898438 -41.691406 36.710938 -43.859375 34.703125 -45.421875 C 32.703125 -46.992188 30.023438 -47.78125 26.671875 -47.78125 C 23.390625 -47.78125 20.859375 -47.085938 19.078125 -45.703125 C 17.296875 -44.316406 16.40625 -42.492188 16.40625 -40.234375 C 16.40625 -38.046875 17.550781 -36.332031 19.84375 -35.09375 C 22.132812 -33.851562 25.25 -32.796875 29.1875 -31.921875 C 32.539062 -31.191406 35.726562 -30.296875 38.75 -29.234375 C 41.78125 -28.179688 44.257812 -26.613281 46.1875 -24.53125 C 48.125 -22.457031 49.09375 -19.457031 49.09375 -15.53125 C 49.164062 -10.644531 47.320312 -6.613281 43.5625 -3.4375 C 39.8125 -0.269531 34.726562 1.3125 28.3125 1.3125 Z M 28.3125 1.3125 "/></g></g></g><g fill="#010101" fill-opacity="1"><g transform="translate(1182.412045, 108.883233)"><g/></g></g><g fill="#010101" fill-opacity="1"><g transform="translate(1211.384666, 108.883233)"><g><path d="M 32.46875 1.3125 C 27.289062 1.3125 22.644531 0.128906 18.53125 -2.234375 C 14.414062 -4.609375 11.171875 -7.925781 8.796875 -12.1875 C 6.429688 -16.445312 5.25 -21.421875 5.25 -27.109375 C 5.25 -32.796875 6.429688 -37.769531 8.796875 -42.03125 C 11.171875 -46.300781 14.414062 -49.617188 18.53125 -51.984375 C 22.644531 -54.347656 27.289062 -55.53125 32.46875 -55.53125 C 38.882812 -55.53125 44.296875 -53.851562 48.703125 -50.5 C 53.109375 -47.15625 55.894531 -42.675781 57.0625 -37.0625 L 47.671875 -37.0625 C 46.941406 -40.414062 45.15625 -43.019531 42.3125 -44.875 C 39.46875 -46.738281 36.148438 -47.671875 32.359375 -47.671875 C 29.296875 -47.671875 26.414062 -46.90625 23.71875 -45.375 C 21.019531 -43.84375 18.832031 -41.546875 17.15625 -38.484375 C 15.488281 -35.421875 14.65625 -31.628906 14.65625 -27.109375 C 14.65625 -22.585938 15.488281 -18.796875 17.15625 -15.734375 C 18.832031 -12.679688 21.019531 -10.367188 23.71875 -8.796875 C 26.414062 -7.234375 29.296875 -6.453125 32.359375 -6.453125 C 36.148438 -6.453125 39.46875 -7.378906 42.3125 -9.234375 C 45.15625 -11.097656 46.941406 -13.742188 47.671875 -17.171875 L 57.0625 -17.171875 C 55.96875 -11.703125 53.195312 -7.253906 48.75 -3.828125 C 44.3125 -0.398438 38.882812 1.3125 32.46875 1.3125 Z M 32.46875 1.3125 "/></g></g></g><g fill="#010101" fill-opacity="1"><g transform="translate(1273.703221, 108.883233)"><g><path d="M 32.25 1.3125 C 27.144531 1.3125 22.550781 0.144531 18.46875 -2.1875 C 14.394531 -4.519531 11.171875 -7.816406 8.796875 -12.078125 C 6.429688 -16.335938 5.25 -21.347656 5.25 -27.109375 C 5.25 -32.867188 6.453125 -37.878906 8.859375 -42.140625 C 11.265625 -46.410156 14.523438 -49.707031 18.640625 -52.03125 C 22.753906 -54.363281 27.363281 -55.53125 32.46875 -55.53125 C 37.570312 -55.53125 42.164062 -54.363281 46.25 -52.03125 C 50.332031 -49.707031 53.554688 -46.410156 55.921875 -42.140625 C 58.285156 -37.878906 59.46875 -32.867188 59.46875 -27.109375 C 59.46875 -21.347656 58.265625 -16.335938 55.859375 -12.078125 C 53.460938 -7.816406 50.203125 -4.519531 46.078125 -2.1875 C 41.960938 0.144531 37.351562 1.3125 32.25 1.3125 Z M 32.25 -6.5625 C 35.382812 -6.5625 38.300781 -7.328125 41 -8.859375 C 43.695312 -10.390625 45.882812 -12.679688 47.5625 -15.734375 C 49.238281 -18.796875 50.078125 -22.585938 50.078125 -27.109375 C 50.078125 -31.628906 49.253906 -35.421875 47.609375 -38.484375 C 45.972656 -41.546875 43.804688 -43.84375 41.109375 -45.375 C 38.410156 -46.90625 35.53125 -47.671875 32.46875 -47.671875 C 29.332031 -47.671875 26.414062 -46.90625 23.71875 -45.375 C 21.019531 -43.84375 18.832031 -41.546875 17.15625 -38.484375 C 15.488281 -35.421875 14.65625 -31.628906 14.65625 -27.109375 C 14.65625 -22.585938 15.488281 -18.796875 17.15625 -15.734375 C 18.832031 -12.679688 21 -10.390625 23.65625 -8.859375 C 26.320312 -7.328125 29.1875 -6.5625 32.25 -6.5625 Z M 32.25 -6.5625 "/></g></g></g><g fill="#010101" fill-opacity="1"><g transform="translate(1338.426977, 108.883233)"><g><path d="M 7.546875 0 L 7.546875 -54.234375 L 15.859375 -54.234375 L 16.40625 -44.5 C 18.144531 -47.925781 20.65625 -50.617188 23.9375 -52.578125 C 27.21875 -54.546875 30.9375 -55.53125 35.09375 -55.53125 C 41.507812 -55.53125 46.628906 -53.582031 50.453125 -49.6875 C 54.273438 -45.789062 56.1875 -39.796875 56.1875 -31.703125 L 56.1875 0 L 47.015625 0 L 47.015625 -30.71875 C 47.015625 -42.019531 42.347656 -47.671875 33.015625 -47.671875 C 28.347656 -47.671875 24.46875 -45.972656 21.375 -42.578125 C 18.28125 -39.191406 16.734375 -34.363281 16.734375 -28.09375 L 16.734375 0 Z M 7.546875 0 "/></g></g></g><g fill="#010101" fill-opacity="1"><g transform="translate(1400.964186, 108.883233)"><g><path d="M 7.546875 0 L 7.546875 -54.234375 L 15.859375 -54.234375 L 16.40625 -44.5 C 18.144531 -47.925781 20.65625 -50.617188 23.9375 -52.578125 C 27.21875 -54.546875 30.9375 -55.53125 35.09375 -55.53125 C 41.507812 -55.53125 46.628906 -53.582031 50.453125 -49.6875 C 54.273438 -45.789062 56.1875 -39.796875 56.1875 -31.703125 L 56.1875 0 L 47.015625 0 L 47.015625 -30.71875 C 47.015625 -42.019531 42.347656 -47.671875 33.015625 -47.671875 C 28.347656 -47.671875 24.46875 -45.972656 21.375 -42.578125 C 18.28125 -39.191406 16.734375 -34.363281 16.734375 -28.09375 L 16.734375 0 Z M 7.546875 0 "/></g></g></g><g fill="#010101" fill-opacity="1"><g transform="translate(1463.501395, 108.883233)"><g><path d="M 31.921875 1.3125 C 26.742188 1.3125 22.148438 0.128906 18.140625 -2.234375 C 14.140625 -4.609375 10.988281 -7.90625 8.6875 -12.125 C 6.394531 -16.351562 5.25 -21.347656 5.25 -27.109375 C 5.25 -32.796875 6.378906 -37.769531 8.640625 -42.03125 C 10.898438 -46.300781 14.050781 -49.617188 18.09375 -51.984375 C 22.132812 -54.347656 26.816406 -55.53125 32.140625 -55.53125 C 37.390625 -55.53125 41.925781 -54.347656 45.75 -51.984375 C 49.582031 -49.617188 52.515625 -46.503906 54.546875 -42.640625 C 56.585938 -38.773438 57.609375 -34.617188 57.609375 -30.171875 C 57.609375 -29.367188 57.585938 -28.566406 57.546875 -27.765625 C 57.515625 -26.960938 57.5 -26.050781 57.5 -25.03125 L 14.328125 -25.03125 C 14.546875 -20.875 15.507812 -17.429688 17.21875 -14.703125 C 18.925781 -11.972656 21.070312 -9.914062 23.65625 -8.53125 C 26.25 -7.144531 29.003906 -6.453125 31.921875 -6.453125 C 35.710938 -6.453125 38.882812 -7.328125 41.4375 -9.078125 C 43.988281 -10.828125 45.847656 -13.195312 47.015625 -16.1875 L 56.078125 -16.1875 C 54.628906 -11.15625 51.84375 -6.976562 47.71875 -3.65625 C 43.601562 -0.34375 38.335938 1.3125 31.921875 1.3125 Z M 31.921875 -47.78125 C 27.546875 -47.78125 23.664062 -46.445312 20.28125 -43.78125 C 16.894531 -41.125 14.945312 -37.242188 14.4375 -32.140625 L 48.546875 -32.140625 C 48.328125 -37.023438 46.648438 -40.851562 43.515625 -43.625 C 40.378906 -46.394531 36.515625 -47.78125 31.921875 -47.78125 Z M 31.921875 -47.78125 "/></g></g></g><g fill="#010101" fill-opacity="1"><g transform="translate(1525.710623, 108.883233)"><g><path d="M 32.46875 1.3125 C 27.289062 1.3125 22.644531 0.128906 18.53125 -2.234375 C 14.414062 -4.609375 11.171875 -7.925781 8.796875 -12.1875 C 6.429688 -16.445312 5.25 -21.421875 5.25 -27.109375 C 5.25 -32.796875 6.429688 -37.769531 8.796875 -42.03125 C 11.171875 -46.300781 14.414062 -49.617188 18.53125 -51.984375 C 22.644531 -54.347656 27.289062 -55.53125 32.46875 -55.53125 C 38.882812 -55.53125 44.296875 -53.851562 48.703125 -50.5 C 53.109375 -47.15625 55.894531 -42.675781 57.0625 -37.0625 L 47.671875 -37.0625 C 46.941406 -40.414062 45.15625 -43.019531 42.3125 -44.875 C 39.46875 -46.738281 36.148438 -47.671875 32.359375 -47.671875 C 29.296875 -47.671875 26.414062 -46.90625 23.71875 -45.375 C 21.019531 -43.84375 18.832031 -41.546875 17.15625 -38.484375 C 15.488281 -35.421875 14.65625 -31.628906 14.65625 -27.109375 C 14.65625 -22.585938 15.488281 -18.796875 17.15625 -15.734375 C 18.832031 -12.679688 21.019531 -10.367188 23.71875 -8.796875 C 26.414062 -7.234375 29.296875 -6.453125 32.359375 -6.453125 C 36.148438 -6.453125 39.46875 -7.378906 42.3125 -9.234375 C 45.15625 -11.097656 46.941406 -13.742188 47.671875 -17.171875 L 57.0625 -17.171875 C 55.96875 -11.703125 53.195312 -7.253906 48.75 -3.828125 C 44.3125 -0.398438 38.882812 1.3125 32.46875 1.3125 Z M 32.46875 1.3125 "/></g></g></g><g fill="#010101" fill-opacity="1"><g transform="translate(1586.498485, 108.883233)"><g><path d="M 28.96875 0 C 24.007812 0 20.109375 -1.203125 17.265625 -3.609375 C 14.429688 -6.015625 13.015625 -10.351562 13.015625 -16.625 L 13.015625 -46.46875 L 3.609375 -46.46875 L 3.609375 -54.234375 L 13.015625 -54.234375 L 14.21875 -67.234375 L 22.1875 -67.234375 L 22.1875 -54.234375 L 38.15625 -54.234375 L 38.15625 -46.46875 L 22.1875 -46.46875 L 22.1875 -16.625 C 22.1875 -13.195312 22.878906 -10.878906 24.265625 -9.671875 C 25.648438 -8.472656 28.09375 -7.875 31.59375 -7.875 L 37.28125 -7.875 L 37.28125 0 Z M 28.96875 0 "/></g></g></g><g fill="#010101" fill-opacity="1"><g transform="translate(1628.809479, 108.883233)"><g><path d="M 13.125 -66.25 C 11.300781 -66.25 9.785156 -66.847656 8.578125 -68.046875 C 7.378906 -69.253906 6.78125 -70.769531 6.78125 -72.59375 C 6.78125 -74.34375 7.378906 -75.800781 8.578125 -76.96875 C 9.785156 -78.132812 11.300781 -78.71875 13.125 -78.71875 C 14.875 -78.71875 16.363281 -78.132812 17.59375 -76.96875 C 18.832031 -75.800781 19.453125 -74.34375 19.453125 -72.59375 C 19.453125 -70.769531 18.832031 -69.253906 17.59375 -68.046875 C 16.363281 -66.847656 14.875 -66.25 13.125 -66.25 Z M 8.53125 0 L 8.53125 -54.234375 L 17.71875 -54.234375 L 17.71875 0 Z M 8.53125 0 "/></g></g></g><g fill="#010101" fill-opacity="1"><g transform="translate(1654.93959, 108.883233)"><g><path d="M 32.25 1.3125 C 27.144531 1.3125 22.550781 0.144531 18.46875 -2.1875 C 14.394531 -4.519531 11.171875 -7.816406 8.796875 -12.078125 C 6.429688 -16.335938 5.25 -21.347656 5.25 -27.109375 C 5.25 -32.867188 6.453125 -37.878906 8.859375 -42.140625 C 11.265625 -46.410156 14.523438 -49.707031 18.640625 -52.03125 C 22.753906 -54.363281 27.363281 -55.53125 32.46875 -55.53125 C 37.570312 -55.53125 42.164062 -54.363281 46.25 -52.03125 C 50.332031 -49.707031 53.554688 -46.410156 55.921875 -42.140625 C 58.285156 -37.878906 59.46875 -32.867188 59.46875 -27.109375 C 59.46875 -21.347656 58.265625 -16.335938 55.859375 -12.078125 C 53.460938 -7.816406 50.203125 -4.519531 46.078125 -2.1875 C 41.960938 0.144531 37.351562 1.3125 32.25 1.3125 Z M 32.25 -6.5625 C 35.382812 -6.5625 38.300781 -7.328125 41 -8.859375 C 43.695312 -10.390625 45.882812 -12.679688 47.5625 -15.734375 C 49.238281 -18.796875 50.078125 -22.585938 50.078125 -27.109375 C 50.078125 -31.628906 49.253906 -35.421875 47.609375 -38.484375 C 45.972656 -41.546875 43.804688 -43.84375 41.109375 -45.375 C 38.410156 -46.90625 35.53125 -47.671875 32.46875 -47.671875 C 29.332031 -47.671875 26.414062 -46.90625 23.71875 -45.375 C 21.019531 -43.84375 18.832031 -41.546875 17.15625 -38.484375 C 15.488281 -35.421875 14.65625 -31.628906 14.65625 -27.109375 C 14.65625 -22.585938 15.488281 -18.796875 17.15625 -15.734375 C 18.832031 -12.679688 21 -10.390625 23.65625 -8.859375 C 26.320312 -7.328125 29.1875 -6.5625 32.25 -6.5625 Z M 32.25 -6.5625 "/></g></g></g><g fill="#010101" fill-opacity="1"><g transform="translate(1719.663346, 108.883233)"><g><path d="M 7.546875 0 L 7.546875 -54.234375 L 15.859375 -54.234375 L 16.40625 -44.5 C 18.144531 -47.925781 20.65625 -50.617188 23.9375 -52.578125 C 27.21875 -54.546875 30.9375 -55.53125 35.09375 -55.53125 C 41.507812 -55.53125 46.628906 -53.582031 50.453125 -49.6875 C 54.273438 -45.789062 56.1875 -39.796875 56.1875 -31.703125 L 56.1875 0 L 47.015625 0 L 47.015625 -30.71875 C 47.015625 -42.019531 42.347656 -47.671875 33.015625 -47.671875 C 28.347656 -47.671875 24.46875 -45.972656 21.375 -42.578125 C 18.28125 -39.191406 16.734375 -34.363281 16.734375 -28.09375 L 16.734375 0 Z M 7.546875 0 "/></g></g></g><g fill="#010101" fill-opacity="1"><g transform="translate(1782.200555, 108.883233)"><g><path d="M 0.21875 13.015625 L 6.5625 -11.15625 L 16.078125 -11.15625 L 6.5625 13.015625 Z M 0.21875 13.015625 "/></g></g></g><g fill="#010101" fill-opacity="1"><g transform="translate(1801.661479, 108.883233)"><g/></g></g><g fill="#010101" fill-opacity="1"><g transform="translate(1830.6341, 108.883233)"><g><path d="M 25.578125 1.3125 C 21.054688 1.3125 17.300781 0.546875 14.3125 -0.984375 C 11.332031 -2.515625 9.113281 -4.554688 7.65625 -7.109375 C 6.195312 -9.660156 5.46875 -12.429688 5.46875 -15.421875 C 5.46875 -20.953125 7.582031 -25.210938 11.8125 -28.203125 C 16.039062 -31.191406 21.796875 -32.6875 29.078125 -32.6875 L 43.734375 -32.6875 L 43.734375 -33.34375 C 43.734375 -38.082031 42.492188 -41.671875 40.015625 -44.109375 C 37.535156 -46.554688 34.21875 -47.78125 30.0625 -47.78125 C 26.488281 -47.78125 23.410156 -46.882812 20.828125 -45.09375 C 18.242188 -43.3125 16.625 -40.707031 15.96875 -37.28125 L 6.5625 -37.28125 C 6.925781 -41.21875 8.253906 -44.535156 10.546875 -47.234375 C 12.847656 -49.929688 15.707031 -51.988281 19.125 -53.40625 C 22.550781 -54.820312 26.195312 -55.53125 30.0625 -55.53125 C 37.644531 -55.53125 43.347656 -53.507812 47.171875 -49.46875 C 51.003906 -45.425781 52.921875 -40.050781 52.921875 -33.34375 L 52.921875 0 L 44.71875 0 L 44.171875 -9.734375 C 42.640625 -6.671875 40.394531 -4.0625 37.4375 -1.90625 C 34.488281 0.238281 30.535156 1.3125 25.578125 1.3125 Z M 27 -6.453125 C 30.5 -6.453125 33.503906 -7.363281 36.015625 -9.1875 C 38.535156 -11.007812 40.453125 -13.375 41.765625 -16.28125 C 43.078125 -19.195312 43.734375 -22.257812 43.734375 -25.46875 L 43.734375 -25.578125 L 29.84375 -25.578125 C 24.445312 -25.578125 20.640625 -24.644531 18.421875 -22.78125 C 16.203125 -20.925781 15.09375 -18.617188 15.09375 -15.859375 C 15.09375 -13.015625 16.128906 -10.734375 18.203125 -9.015625 C 20.273438 -7.304688 23.207031 -6.453125 27 -6.453125 Z M 27 -6.453125 "/></g></g></g><g fill="#010101" fill-opacity="1"><g transform="translate(1889.782053, 108.883233)"><g><path d="M 7.546875 0 L 7.546875 -54.234375 L 15.859375 -54.234375 L 16.40625 -44.5 C 18.144531 -47.925781 20.65625 -50.617188 23.9375 -52.578125 C 27.21875 -54.546875 30.9375 -55.53125 35.09375 -55.53125 C 41.507812 -55.53125 46.628906 -53.582031 50.453125 -49.6875 C 54.273438 -45.789062 56.1875 -39.796875 56.1875 -31.703125 L 56.1875 0 L 47.015625 0 L 47.015625 -30.71875 C 47.015625 -42.019531 42.347656 -47.671875 33.015625 -47.671875 C 28.347656 -47.671875 24.46875 -45.972656 21.375 -42.578125 C 18.28125 -39.191406 16.734375 -34.363281 16.734375 -28.09375 L 16.734375 0 Z M 7.546875 0 "/></g></g></g><g fill="#010101" fill-opacity="1"><g transform="translate(1952.319262, 108.883233)"><g><path d="M 32.140625 1.3125 C 26.742188 1.3125 22.023438 0.0703125 17.984375 -2.40625 C 13.941406 -4.882812 10.804688 -8.269531 8.578125 -12.5625 C 6.359375 -16.863281 5.25 -21.75 5.25 -27.21875 C 5.25 -32.6875 6.378906 -37.550781 8.640625 -41.8125 C 10.898438 -46.082031 14.03125 -49.4375 18.03125 -51.875 C 22.039062 -54.3125 26.78125 -55.53125 32.25 -55.53125 C 36.695312 -55.53125 40.632812 -54.617188 44.0625 -52.796875 C 47.488281 -50.984375 50.148438 -48.4375 52.046875 -45.15625 L 52.046875 -78.71875 L 61.21875 -78.71875 L 61.21875 0 L 52.921875 0 L 52.046875 -8.96875 C 50.296875 -6.34375 47.78125 -3.972656 44.5 -1.859375 C 41.21875 0.253906 37.097656 1.3125 32.140625 1.3125 Z M 33.125 -6.671875 C 36.769531 -6.671875 39.992188 -7.523438 42.796875 -9.234375 C 45.609375 -10.953125 47.796875 -13.335938 49.359375 -16.390625 C 50.929688 -19.453125 51.71875 -23.023438 51.71875 -27.109375 C 51.71875 -31.191406 50.929688 -34.765625 49.359375 -37.828125 C 47.796875 -40.890625 45.609375 -43.273438 42.796875 -44.984375 C 39.992188 -46.703125 36.769531 -47.5625 33.125 -47.5625 C 29.550781 -47.5625 26.359375 -46.703125 23.546875 -44.984375 C 20.742188 -43.273438 18.5625 -40.890625 17 -37.828125 C 15.4375 -34.765625 14.65625 -31.191406 14.65625 -27.109375 C 14.65625 -23.023438 15.4375 -19.453125 17 -16.390625 C 18.5625 -13.335938 20.742188 -10.953125 23.546875 -9.234375 C 26.359375 -7.523438 29.550781 -6.671875 33.125 -6.671875 Z M 33.125 -6.671875 "/></g></g></g><g fill="#010101" fill-opacity="1"><g transform="translate(2020.979022, 108.883233)"><g/></g></g><g fill="#010101" fill-opacity="1"><g transform="translate(2049.951643, 108.883233)"><g><path d="M 28.96875 0 C 24.007812 0 20.109375 -1.203125 17.265625 -3.609375 C 14.429688 -6.015625 13.015625 -10.351562 13.015625 -16.625 L 13.015625 -46.46875 L 3.609375 -46.46875 L 3.609375 -54.234375 L 13.015625 -54.234375 L 14.21875 -67.234375 L 22.1875 -67.234375 L 22.1875 -54.234375 L 38.15625 -54.234375 L 38.15625 -46.46875 L 22.1875 -46.46875 L 22.1875 -16.625 C 22.1875 -13.195312 22.878906 -10.878906 24.265625 -9.671875 C 25.648438 -8.472656 28.09375 -7.875 31.59375 -7.875 L 37.28125 -7.875 L 37.28125 0 Z M 28.96875 0 "/></g></g></g><g fill="#010101" fill-opacity="1"><g transform="translate(2092.262637, 108.883233)"><g><path d="M 7.546875 0 L 7.546875 -54.234375 L 15.859375 -54.234375 L 16.625 -43.84375 C 18.289062 -47.414062 20.835938 -50.253906 24.265625 -52.359375 C 27.691406 -54.472656 31.921875 -55.53125 36.953125 -55.53125 L 36.953125 -45.921875 L 34.4375 -45.921875 C 31.226562 -45.921875 28.273438 -45.351562 25.578125 -44.21875 C 22.878906 -43.09375 20.726562 -41.179688 19.125 -38.484375 C 17.53125 -35.785156 16.734375 -32.066406 16.734375 -27.328125 L 16.734375 0 Z M 7.546875 0 "/></g></g></g><g fill="#010101" fill-opacity="1"><g transform="translate(2131.949555, 108.883233)"><g><path d="M 25.578125 1.3125 C 21.054688 1.3125 17.300781 0.546875 14.3125 -0.984375 C 11.332031 -2.515625 9.113281 -4.554688 7.65625 -7.109375 C 6.195312 -9.660156 5.46875 -12.429688 5.46875 -15.421875 C 5.46875 -20.953125 7.582031 -25.210938 11.8125 -28.203125 C 16.039062 -31.191406 21.796875 -32.6875 29.078125 -32.6875 L 43.734375 -32.6875 L 43.734375 -33.34375 C 43.734375 -38.082031 42.492188 -41.671875 40.015625 -44.109375 C 37.535156 -46.554688 34.21875 -47.78125 30.0625 -47.78125 C 26.488281 -47.78125 23.410156 -46.882812 20.828125 -45.09375 C 18.242188 -43.3125 16.625 -40.707031 15.96875 -37.28125 L 6.5625 -37.28125 C 6.925781 -41.21875 8.253906 -44.535156 10.546875 -47.234375 C 12.847656 -49.929688 15.707031 -51.988281 19.125 -53.40625 C 22.550781 -54.820312 26.195312 -55.53125 30.0625 -55.53125 C 37.644531 -55.53125 43.347656 -53.507812 47.171875 -49.46875 C 51.003906 -45.425781 52.921875 -40.050781 52.921875 -33.34375 L 52.921875 0 L 44.71875 0 L 44.171875 -9.734375 C 42.640625 -6.671875 40.394531 -4.0625 37.4375 -1.90625 C 34.488281 0.238281 30.535156 1.3125 25.578125 1.3125 Z M 27 -6.453125 C 30.5 -6.453125 33.503906 -7.363281 36.015625 -9.1875 C 38.535156 -11.007812 40.453125 -13.375 41.765625 -16.28125 C 43.078125 -19.195312 43.734375 -22.257812 43.734375 -25.46875 L 43.734375 -25.578125 L 29.84375 -25.578125 C 24.445312 -25.578125 20.640625 -24.644531 18.421875 -22.78125 C 16.203125 -20.925781 15.09375 -18.617188 15.09375 -15.859375 C 15.09375 -13.015625 16.128906 -10.734375 18.203125 -9.015625 C 20.273438 -7.304688 23.207031 -6.453125 27 -6.453125 Z M 27 -6.453125 "/></g></g></g><g fill="#010101" fill-opacity="1"><g transform="translate(2191.097618, 108.883233)"><g><path d="M 7.546875 0 L 7.546875 -54.234375 L 15.859375 -54.234375 L 16.40625 -44.5 C 18.144531 -47.925781 20.65625 -50.617188 23.9375 -52.578125 C 27.21875 -54.546875 30.9375 -55.53125 35.09375 -55.53125 C 41.507812 -55.53125 46.628906 -53.582031 50.453125 -49.6875 C 54.273438 -45.789062 56.1875 -39.796875 56.1875 -31.703125 L 56.1875 0 L 47.015625 0 L 47.015625 -30.71875 C 47.015625 -42.019531 42.347656 -47.671875 33.015625 -47.671875 C 28.347656 -47.671875 24.46875 -45.972656 21.375 -42.578125 C 18.28125 -39.191406 16.734375 -34.363281 16.734375 -28.09375 L 16.734375 0 Z M 7.546875 0 "/></g></g></g><g fill="#010101" fill-opacity="1"><g transform="translate(2253.634828, 108.883233)"><g><path d="M 28.3125 1.3125 C 21.820312 1.3125 16.425781 -0.328125 12.125 -3.609375 C 7.832031 -6.890625 5.320312 -11.335938 4.59375 -16.953125 L 14 -16.953125 C 14.582031 -14.109375 16.09375 -11.644531 18.53125 -9.5625 C 20.96875 -7.488281 24.265625 -6.453125 28.421875 -6.453125 C 32.285156 -6.453125 35.128906 -7.269531 36.953125 -8.90625 C 38.773438 -10.550781 39.6875 -12.503906 39.6875 -14.765625 C 39.6875 -18.035156 38.5 -20.21875 36.125 -21.3125 C 33.757812 -22.40625 30.425781 -23.390625 26.125 -24.265625 C 23.207031 -24.847656 20.289062 -25.6875 17.375 -26.78125 C 14.46875 -27.875 12.03125 -29.421875 10.0625 -31.421875 C 8.09375 -33.429688 7.109375 -36.078125 7.109375 -39.359375 C 7.109375 -44.097656 8.875 -47.976562 12.40625 -51 C 15.945312 -54.019531 20.738281 -55.53125 26.78125 -55.53125 C 32.539062 -55.53125 37.257812 -54.09375 40.9375 -51.21875 C 44.625 -48.34375 46.757812 -44.242188 47.34375 -38.921875 L 38.265625 -38.921875 C 37.898438 -41.691406 36.710938 -43.859375 34.703125 -45.421875 C 32.703125 -46.992188 30.023438 -47.78125 26.671875 -47.78125 C 23.390625 -47.78125 20.859375 -47.085938 19.078125 -45.703125 C 17.296875 -44.316406 16.40625 -42.492188 16.40625 -40.234375 C 16.40625 -38.046875 17.550781 -36.332031 19.84375 -35.09375 C 22.132812 -33.851562 25.25 -32.796875 29.1875 -31.921875 C 32.539062 -31.191406 35.726562 -30.296875 38.75 -29.234375 C 41.78125 -28.179688 44.257812 -26.613281 46.1875 -24.53125 C 48.125 -22.457031 49.09375 -19.457031 49.09375 -15.53125 C 49.164062 -10.644531 47.320312 -6.613281 43.5625 -3.4375 C 39.8125 -0.269531 34.726562 1.3125 28.3125 1.3125 Z M 28.3125 1.3125 "/></g></g></g><g fill="#010101" fill-opacity="1"><g transform="translate(2308.30025, 108.883233)"><g><path d="M 10.5 0 L 10.5 -46.46875 L 2.296875 -46.46875 L 2.296875 -54.234375 L 10.5 -54.234375 L 10.5 -63.625 C 10.5 -68.875 11.804688 -72.703125 14.421875 -75.109375 C 17.046875 -77.515625 20.875 -78.71875 25.90625 -78.71875 L 31.375 -78.71875 L 31.375 -70.84375 L 27.328125 -70.84375 C 24.554688 -70.84375 22.585938 -70.273438 21.421875 -69.140625 C 20.253906 -68.015625 19.671875 -66.101562 19.671875 -63.40625 L 19.671875 -54.234375 L 33.015625 -54.234375 L 33.015625 -46.46875 L 19.671875 -46.46875 L 19.671875 0 Z M 10.5 0 "/></g></g></g><g fill="#010101" fill-opacity="1"><g transform="translate(2342.520581, 108.883233)"><g><path d="M 32.25 1.3125 C 27.144531 1.3125 22.550781 0.144531 18.46875 -2.1875 C 14.394531 -4.519531 11.171875 -7.816406 8.796875 -12.078125 C 6.429688 -16.335938 5.25 -21.347656 5.25 -27.109375 C 5.25 -32.867188 6.453125 -37.878906 8.859375 -42.140625 C 11.265625 -46.410156 14.523438 -49.707031 18.640625 -52.03125 C 22.753906 -54.363281 27.363281 -55.53125 32.46875 -55.53125 C 37.570312 -55.53125 42.164062 -54.363281 46.25 -52.03125 C 50.332031 -49.707031 53.554688 -46.410156 55.921875 -42.140625 C 58.285156 -37.878906 59.46875 -32.867188 59.46875 -27.109375 C 59.46875 -21.347656 58.265625 -16.335938 55.859375 -12.078125 C 53.460938 -7.816406 50.203125 -4.519531 46.078125 -2.1875 C 41.960938 0.144531 37.351562 1.3125 32.25 1.3125 Z M 32.25 -6.5625 C 35.382812 -6.5625 38.300781 -7.328125 41 -8.859375 C 43.695312 -10.390625 45.882812 -12.679688 47.5625 -15.734375 C 49.238281 -18.796875 50.078125 -22.585938 50.078125 -27.109375 C 50.078125 -31.628906 49.253906 -35.421875 47.609375 -38.484375 C 45.972656 -41.546875 43.804688 -43.84375 41.109375 -45.375 C 38.410156 -46.90625 35.53125 -47.671875 32.46875 -47.671875 C 29.332031 -47.671875 26.414062 -46.90625 23.71875 -45.375 C 21.019531 -43.84375 18.832031 -41.546875 17.15625 -38.484375 C 15.488281 -35.421875 14.65625 -31.628906 14.65625 -27.109375 C 14.65625 -22.585938 15.488281 -18.796875 17.15625 -15.734375 C 18.832031 -12.679688 21 -10.390625 23.65625 -8.859375 C 26.320312 -7.328125 29.1875 -6.5625 32.25 -6.5625 Z M 32.25 -6.5625 "/></g></g></g><g fill="#010101" fill-opacity="1"><g transform="translate(2407.244558, 108.883233)"><g><path d="M 7.546875 0 L 7.546875 -54.234375 L 15.859375 -54.234375 L 16.625 -43.84375 C 18.289062 -47.414062 20.835938 -50.253906 24.265625 -52.359375 C 27.691406 -54.472656 31.921875 -55.53125 36.953125 -55.53125 L 36.953125 -45.921875 L 34.4375 -45.921875 C 31.226562 -45.921875 28.273438 -45.351562 25.578125 -44.21875 C 22.878906 -43.09375 20.726562 -41.179688 19.125 -38.484375 C 17.53125 -35.785156 16.734375 -32.066406 16.734375 -27.328125 L 16.734375 0 Z M 7.546875 0 "/></g></g></g><g fill="#010101" fill-opacity="1"><g transform="translate(2446.931476, 108.883233)"><g><path d="M 7.546875 0 L 7.546875 -54.234375 L 15.859375 -54.234375 L 16.515625 -46.359375 C 18.253906 -49.273438 20.582031 -51.53125 23.5 -53.125 C 26.414062 -54.726562 29.695312 -55.53125 33.34375 -55.53125 C 37.644531 -55.53125 41.34375 -54.65625 44.4375 -52.90625 C 47.539062 -51.164062 49.929688 -48.507812 51.609375 -44.9375 C 53.503906 -48.21875 56.109375 -50.800781 59.421875 -52.6875 C 62.734375 -54.582031 66.320312 -55.53125 70.1875 -55.53125 C 76.675781 -55.53125 81.847656 -53.582031 85.703125 -49.6875 C 89.566406 -45.789062 91.5 -39.796875 91.5 -31.703125 L 91.5 0 L 82.4375 0 L 82.4375 -30.71875 C 82.4375 -36.332031 81.304688 -40.5625 79.046875 -43.40625 C 76.785156 -46.25 73.539062 -47.671875 69.3125 -47.671875 C 64.9375 -47.671875 61.3125 -45.972656 58.4375 -42.578125 C 55.5625 -39.191406 54.125 -34.363281 54.125 -28.09375 L 54.125 0 L 44.9375 0 L 44.9375 -30.71875 C 44.9375 -36.332031 43.804688 -40.5625 41.546875 -43.40625 C 39.285156 -46.25 36.039062 -47.671875 31.8125 -47.671875 C 27.507812 -47.671875 23.921875 -45.972656 21.046875 -42.578125 C 18.171875 -39.191406 16.734375 -34.363281 16.734375 -28.09375 L 16.734375 0 Z M 7.546875 0 "/></g></g></g><g fill="#010101" fill-opacity="1"><g transform="translate(2544.782512, 108.883233)"><g><path d="M 25.578125 1.3125 C 21.054688 1.3125 17.300781 0.546875 14.3125 -0.984375 C 11.332031 -2.515625 9.113281 -4.554688 7.65625 -7.109375 C 6.195312 -9.660156 5.46875 -12.429688 5.46875 -15.421875 C 5.46875 -20.953125 7.582031 -25.210938 11.8125 -28.203125 C 16.039062 -31.191406 21.796875 -32.6875 29.078125 -32.6875 L 43.734375 -32.6875 L 43.734375 -33.34375 C 43.734375 -38.082031 42.492188 -41.671875 40.015625 -44.109375 C 37.535156 -46.554688 34.21875 -47.78125 30.0625 -47.78125 C 26.488281 -47.78125 23.410156 -46.882812 20.828125 -45.09375 C 18.242188 -43.3125 16.625 -40.707031 15.96875 -37.28125 L 6.5625 -37.28125 C 6.925781 -41.21875 8.253906 -44.535156 10.546875 -47.234375 C 12.847656 -49.929688 15.707031 -51.988281 19.125 -53.40625 C 22.550781 -54.820312 26.195312 -55.53125 30.0625 -55.53125 C 37.644531 -55.53125 43.347656 -53.507812 47.171875 -49.46875 C 51.003906 -45.425781 52.921875 -40.050781 52.921875 -33.34375 L 52.921875 0 L 44.71875 0 L 44.171875 -9.734375 C 42.640625 -6.671875 40.394531 -4.0625 37.4375 -1.90625 C 34.488281 0.238281 30.535156 1.3125 25.578125 1.3125 Z M 27 -6.453125 C 30.5 -6.453125 33.503906 -7.363281 36.015625 -9.1875 C 38.535156 -11.007812 40.453125 -13.375 41.765625 -16.28125 C 43.078125 -19.195312 43.734375 -22.257812 43.734375 -25.46875 L 43.734375 -25.578125 L 29.84375 -25.578125 C 24.445312 -25.578125 20.640625 -24.644531 18.421875 -22.78125 C 16.203125 -20.925781 15.09375 -18.617188 15.09375 -15.859375 C 15.09375 -13.015625 16.128906 -10.734375 18.203125 -9.015625 C 20.273438 -7.304688 23.207031 -6.453125 27 -6.453125 Z M 27 -6.453125 "/></g></g></g><g fill="#010101" fill-opacity="1"><g transform="translate(2602.399993, 108.883233)"><g><path d="M 28.96875 0 C 24.007812 0 20.109375 -1.203125 17.265625 -3.609375 C 14.429688 -6.015625 13.015625 -10.351562 13.015625 -16.625 L 13.015625 -46.46875 L 3.609375 -46.46875 L 3.609375 -54.234375 L 13.015625 -54.234375 L 14.21875 -67.234375 L 22.1875 -67.234375 L 22.1875 -54.234375 L 38.15625 -54.234375 L 38.15625 -46.46875 L 22.1875 -46.46875 L 22.1875 -16.625 C 22.1875 -13.195312 22.878906 -10.878906 24.265625 -9.671875 C 25.648438 -8.472656 28.09375 -7.875 31.59375 -7.875 L 37.28125 -7.875 L 37.28125 0 Z M 28.96875 0 "/></g></g></g><g fill="#010101" fill-opacity="1"><g transform="translate(2644.710987, 108.883233)"><g><path d="M 13.125 -66.25 C 11.300781 -66.25 9.785156 -66.847656 8.578125 -68.046875 C 7.378906 -69.253906 6.78125 -70.769531 6.78125 -72.59375 C 6.78125 -74.34375 7.378906 -75.800781 8.578125 -76.96875 C 9.785156 -78.132812 11.300781 -78.71875 13.125 -78.71875 C 14.875 -78.71875 16.363281 -78.132812 17.59375 -76.96875 C 18.832031 -75.800781 19.453125 -74.34375 19.453125 -72.59375 C 19.453125 -70.769531 18.832031 -69.253906 17.59375 -68.046875 C 16.363281 -66.847656 14.875 -66.25 13.125 -66.25 Z M 8.53125 0 L 8.53125 -54.234375 L 17.71875 -54.234375 L 17.71875 0 Z M 8.53125 0 "/></g></g></g><g fill="#010101" fill-opacity="1"><g transform="translate(2670.840876, 108.883233)"><g><path d="M 32.25 1.3125 C 27.144531 1.3125 22.550781 0.144531 18.46875 -2.1875 C 14.394531 -4.519531 11.171875 -7.816406 8.796875 -12.078125 C 6.429688 -16.335938 5.25 -21.347656 5.25 -27.109375 C 5.25 -32.867188 6.453125 -37.878906 8.859375 -42.140625 C 11.265625 -46.410156 14.523438 -49.707031 18.640625 -52.03125 C 22.753906 -54.363281 27.363281 -55.53125 32.46875 -55.53125 C 37.570312 -55.53125 42.164062 -54.363281 46.25 -52.03125 C 50.332031 -49.707031 53.554688 -46.410156 55.921875 -42.140625 C 58.285156 -37.878906 59.46875 -32.867188 59.46875 -27.109375 C 59.46875 -21.347656 58.265625 -16.335938 55.859375 -12.078125 C 53.460938 -7.816406 50.203125 -4.519531 46.078125 -2.1875 C 41.960938 0.144531 37.351562 1.3125 32.25 1.3125 Z M 32.25 -6.5625 C 35.382812 -6.5625 38.300781 -7.328125 41 -8.859375 C 43.695312 -10.390625 45.882812 -12.679688 47.5625 -15.734375 C 49.238281 -18.796875 50.078125 -22.585938 50.078125 -27.109375 C 50.078125 -31.628906 49.253906 -35.421875 47.609375 -38.484375 C 45.972656 -41.546875 43.804688 -43.84375 41.109375 -45.375 C 38.410156 -46.90625 35.53125 -47.671875 32.46875 -47.671875 C 29.332031 -47.671875 26.414062 -46.90625 23.71875 -45.375 C 21.019531 -43.84375 18.832031 -41.546875 17.15625 -38.484375 C 15.488281 -35.421875 14.65625 -31.628906 14.65625 -27.109375 C 14.65625 -22.585938 15.488281 -18.796875 17.15625 -15.734375 C 18.832031 -12.679688 21 -10.390625 23.65625 -8.859375 C 26.320312 -7.328125 29.1875 -6.5625 32.25 -6.5625 Z M 32.25 -6.5625 "/></g></g></g><g fill="#010101" fill-opacity="1"><g transform="translate(2735.564853, 108.883233)"><g><path d="M 7.546875 0 L 7.546875 -54.234375 L 15.859375 -54.234375 L 16.40625 -44.5 C 18.144531 -47.925781 20.65625 -50.617188 23.9375 -52.578125 C 27.21875 -54.546875 30.9375 -55.53125 35.09375 -55.53125 C 41.507812 -55.53125 46.628906 -53.582031 50.453125 -49.6875 C 54.273438 -45.789062 56.1875 -39.796875 56.1875 -31.703125 L 56.1875 0 L 47.015625 0 L 47.015625 -30.71875 C 47.015625 -42.019531 42.347656 -47.671875 33.015625 -47.671875 C 28.347656 -47.671875 24.46875 -45.972656 21.375 -42.578125 C 18.28125 -39.191406 16.734375 -34.363281 16.734375 -28.09375 L 16.734375 0 Z M 7.546875 0 "/></g></g></g><g fill="#010101" fill-opacity="1"><g transform="translate(2798.102062, 108.883233)"><g/></g></g><g fill="#010101" fill-opacity="1"><g transform="translate(2827.074683, 108.883233)"><g><path d="M 36.515625 1.3125 C 32.066406 1.3125 28.109375 0.398438 24.640625 -1.421875 C 21.179688 -3.242188 18.546875 -5.796875 16.734375 -9.078125 L 15.859375 0 L 7.546875 0 L 7.546875 -78.71875 L 16.734375 -78.71875 L 16.734375 -45.265625 C 18.472656 -47.890625 20.960938 -50.253906 24.203125 -52.359375 C 27.453125 -54.472656 31.59375 -55.53125 36.625 -55.53125 C 42.019531 -55.53125 46.71875 -54.289062 50.71875 -51.8125 C 54.726562 -49.34375 57.84375 -45.957031 60.0625 -41.65625 C 62.289062 -37.351562 63.40625 -32.46875 63.40625 -27 C 63.40625 -21.53125 62.289062 -16.664062 60.0625 -12.40625 C 57.84375 -8.144531 54.710938 -4.789062 50.671875 -2.34375 C 46.628906 0.09375 41.910156 1.3125 36.515625 1.3125 Z M 35.53125 -6.671875 C 39.175781 -6.671875 42.382812 -7.523438 45.15625 -9.234375 C 47.925781 -10.953125 50.113281 -13.335938 51.71875 -16.390625 C 53.320312 -19.453125 54.125 -23.023438 54.125 -27.109375 C 54.125 -31.191406 53.320312 -34.765625 51.71875 -37.828125 C 50.113281 -40.890625 47.925781 -43.273438 45.15625 -44.984375 C 42.382812 -46.703125 39.175781 -47.5625 35.53125 -47.5625 C 31.882812 -47.5625 28.675781 -46.703125 25.90625 -44.984375 C 23.132812 -43.273438 20.945312 -40.890625 19.34375 -37.828125 C 17.75 -34.765625 16.953125 -31.191406 16.953125 -27.109375 C 16.953125 -23.023438 17.75 -19.453125 19.34375 -16.390625 C 20.945312 -13.335938 23.132812 -10.953125 25.90625 -9.234375 C 28.675781 -7.523438 31.882812 -6.671875 35.53125 -6.671875 Z M 35.53125 -6.671875 "/></g></g></g><g fill="#010101" fill-opacity="1"><g transform="translate(2895.734443, 108.883233)"><g><path d="M 31.921875 1.3125 C 26.742188 1.3125 22.148438 0.128906 18.140625 -2.234375 C 14.140625 -4.609375 10.988281 -7.90625 8.6875 -12.125 C 6.394531 -16.351562 5.25 -21.347656 5.25 -27.109375 C 5.25 -32.796875 6.378906 -37.769531 8.640625 -42.03125 C 10.898438 -46.300781 14.050781 -49.617188 18.09375 -51.984375 C 22.132812 -54.347656 26.816406 -55.53125 32.140625 -55.53125 C 37.390625 -55.53125 41.925781 -54.347656 45.75 -51.984375 C 49.582031 -49.617188 52.515625 -46.503906 54.546875 -42.640625 C 56.585938 -38.773438 57.609375 -34.617188 57.609375 -30.171875 C 57.609375 -29.367188 57.585938 -28.566406 57.546875 -27.765625 C 57.515625 -26.960938 57.5 -26.050781 57.5 -25.03125 L 14.328125 -25.03125 C 14.546875 -20.875 15.507812 -17.429688 17.21875 -14.703125 C 18.925781 -11.972656 21.070312 -9.914062 23.65625 -8.53125 C 26.25 -7.144531 29.003906 -6.453125 31.921875 -6.453125 C 35.710938 -6.453125 38.882812 -7.328125 41.4375 -9.078125 C 43.988281 -10.828125 45.847656 -13.195312 47.015625 -16.1875 L 56.078125 -16.1875 C 54.628906 -11.15625 51.84375 -6.976562 47.71875 -3.65625 C 43.601562 -0.34375 38.335938 1.3125 31.921875 1.3125 Z M 31.921875 -47.78125 C 27.546875 -47.78125 23.664062 -46.445312 20.28125 -43.78125 C 16.894531 -41.125 14.945312 -37.242188 14.4375 -32.140625 L 48.546875 -32.140625 C 48.328125 -37.023438 46.648438 -40.851562 43.515625 -43.625 C 40.378906 -46.394531 36.515625 -47.78125 31.921875 -47.78125 Z M 31.921875 -47.78125 "/></g></g></g><g fill="#010101" fill-opacity="1"><g transform="translate(2957.94345, 108.883233)"><g><path d="M 32.46875 1.3125 C 27.289062 1.3125 22.644531 0.128906 18.53125 -2.234375 C 14.414062 -4.609375 11.171875 -7.925781 8.796875 -12.1875 C 6.429688 -16.445312 5.25 -21.421875 5.25 -27.109375 C 5.25 -32.796875 6.429688 -37.769531 8.796875 -42.03125 C 11.171875 -46.300781 14.414062 -49.617188 18.53125 -51.984375 C 22.644531 -54.347656 27.289062 -55.53125 32.46875 -55.53125 C 38.882812 -55.53125 44.296875 -53.851562 48.703125 -50.5 C 53.109375 -47.15625 55.894531 -42.675781 57.0625 -37.0625 L 47.671875 -37.0625 C 46.941406 -40.414062 45.15625 -43.019531 42.3125 -44.875 C 39.46875 -46.738281 36.148438 -47.671875 32.359375 -47.671875 C 29.296875 -47.671875 26.414062 -46.90625 23.71875 -45.375 C 21.019531 -43.84375 18.832031 -41.546875 17.15625 -38.484375 C 15.488281 -35.421875 14.65625 -31.628906 14.65625 -27.109375 C 14.65625 -22.585938 15.488281 -18.796875 17.15625 -15.734375 C 18.832031 -12.679688 21.019531 -10.367188 23.71875 -8.796875 C 26.414062 -7.234375 29.296875 -6.453125 32.359375 -6.453125 C 36.148438 -6.453125 39.46875 -7.378906 42.3125 -9.234375 C 45.15625 -11.097656 46.941406 -13.742188 47.671875 -17.171875 L 57.0625 -17.171875 C 55.96875 -11.703125 53.195312 -7.253906 48.75 -3.828125 C 44.3125 -0.398438 38.882812 1.3125 32.46875 1.3125 Z M 32.46875 1.3125 "/></g></g></g><g fill="#010101" fill-opacity="1"><g transform="translate(3020.262004, 108.883233)"><g><path d="M 32.25 1.3125 C 27.144531 1.3125 22.550781 0.144531 18.46875 -2.1875 C 14.394531 -4.519531 11.171875 -7.816406 8.796875 -12.078125 C 6.429688 -16.335938 5.25 -21.347656 5.25 -27.109375 C 5.25 -32.867188 6.453125 -37.878906 8.859375 -42.140625 C 11.265625 -46.410156 14.523438 -49.707031 18.640625 -52.03125 C 22.753906 -54.363281 27.363281 -55.53125 32.46875 -55.53125 C 37.570312 -55.53125 42.164062 -54.363281 46.25 -52.03125 C 50.332031 -49.707031 53.554688 -46.410156 55.921875 -42.140625 C 58.285156 -37.878906 59.46875 -32.867188 59.46875 -27.109375 C 59.46875 -21.347656 58.265625 -16.335938 55.859375 -12.078125 C 53.460938 -7.816406 50.203125 -4.519531 46.078125 -2.1875 C 41.960938 0.144531 37.351562 1.3125 32.25 1.3125 Z M 32.25 -6.5625 C 35.382812 -6.5625 38.300781 -7.328125 41 -8.859375 C 43.695312 -10.390625 45.882812 -12.679688 47.5625 -15.734375 C 49.238281 -18.796875 50.078125 -22.585938 50.078125 -27.109375 C 50.078125 -31.628906 49.253906 -35.421875 47.609375 -38.484375 C 45.972656 -41.546875 43.804688 -43.84375 41.109375 -45.375 C 38.410156 -46.90625 35.53125 -47.671875 32.46875 -47.671875 C 29.332031 -47.671875 26.414062 -46.90625 23.71875 -45.375 C 21.019531 -43.84375 18.832031 -41.546875 17.15625 -38.484375 C 15.488281 -35.421875 14.65625 -31.628906 14.65625 -27.109375 C 14.65625 -22.585938 15.488281 -18.796875 17.15625 -15.734375 C 18.832031 -12.679688 21 -10.390625 23.65625 -8.859375 C 26.320312 -7.328125 29.1875 -6.5625 32.25 -6.5625 Z M 32.25 -6.5625 "/></g></g></g><g fill="#010101" fill-opacity="1"><g transform="translate(3084.985981, 108.883233)"><g><path d="M 7.546875 0 L 7.546875 -54.234375 L 15.859375 -54.234375 L 16.515625 -46.359375 C 18.253906 -49.273438 20.582031 -51.53125 23.5 -53.125 C 26.414062 -54.726562 29.695312 -55.53125 33.34375 -55.53125 C 37.644531 -55.53125 41.34375 -54.65625 44.4375 -52.90625 C 47.539062 -51.164062 49.929688 -48.507812 51.609375 -44.9375 C 53.503906 -48.21875 56.109375 -50.800781 59.421875 -52.6875 C 62.734375 -54.582031 66.320312 -55.53125 70.1875 -55.53125 C 76.675781 -55.53125 81.847656 -53.582031 85.703125 -49.6875 C 89.566406 -45.789062 91.5 -39.796875 91.5 -31.703125 L 91.5 0 L 82.4375 0 L 82.4375 -30.71875 C 82.4375 -36.332031 81.304688 -40.5625 79.046875 -43.40625 C 76.785156 -46.25 73.539062 -47.671875 69.3125 -47.671875 C 64.9375 -47.671875 61.3125 -45.972656 58.4375 -42.578125 C 55.5625 -39.191406 54.125 -34.363281 54.125 -28.09375 L 54.125 0 L 44.9375 0 L 44.9375 -30.71875 C 44.9375 -36.332031 43.804688 -40.5625 41.546875 -43.40625 C 39.285156 -46.25 36.039062 -47.671875 31.8125 -47.671875 C 27.507812 -47.671875 23.921875 -45.972656 21.046875 -42.578125 C 18.171875 -39.191406 16.734375 -34.363281 16.734375 -28.09375 L 16.734375 0 Z M 7.546875 0 "/></g></g></g><g fill="#010101" fill-opacity="1"><g transform="translate(3182.837017, 108.883233)"><g><path d="M 31.921875 1.3125 C 26.742188 1.3125 22.148438 0.128906 18.140625 -2.234375 C 14.140625 -4.609375 10.988281 -7.90625 8.6875 -12.125 C 6.394531 -16.351562 5.25 -21.347656 5.25 -27.109375 C 5.25 -32.796875 6.378906 -37.769531 8.640625 -42.03125 C 10.898438 -46.300781 14.050781 -49.617188 18.09375 -51.984375 C 22.132812 -54.347656 26.816406 -55.53125 32.140625 -55.53125 C 37.390625 -55.53125 41.925781 -54.347656 45.75 -51.984375 C 49.582031 -49.617188 52.515625 -46.503906 54.546875 -42.640625 C 56.585938 -38.773438 57.609375 -34.617188 57.609375 -30.171875 C 57.609375 -29.367188 57.585938 -28.566406 57.546875 -27.765625 C 57.515625 -26.960938 57.5 -26.050781 57.5 -25.03125 L 14.328125 -25.03125 C 14.546875 -20.875 15.507812 -17.429688 17.21875 -14.703125 C 18.925781 -11.972656 21.070312 -9.914062 23.65625 -8.53125 C 26.25 -7.144531 29.003906 -6.453125 31.921875 -6.453125 C 35.710938 -6.453125 38.882812 -7.328125 41.4375 -9.078125 C 43.988281 -10.828125 45.847656 -13.195312 47.015625 -16.1875 L 56.078125 -16.1875 C 54.628906 -11.15625 51.84375 -6.976562 47.71875 -3.65625 C 43.601562 -0.34375 38.335938 1.3125 31.921875 1.3125 Z M 31.921875 -47.78125 C 27.546875 -47.78125 23.664062 -46.445312 20.28125 -43.78125 C 16.894531 -41.125 14.945312 -37.242188 14.4375 -32.140625 L 48.546875 -32.140625 C 48.328125 -37.023438 46.648438 -40.851562 43.515625 -43.625 C 40.378906 -46.394531 36.515625 -47.78125 31.921875 -47.78125 Z M 31.921875 -47.78125 "/></g></g></g><g fill="#010101" fill-opacity="1"><g transform="translate(3245.046244, 108.883233)"><g><path d="M 28.3125 1.3125 C 21.820312 1.3125 16.425781 -0.328125 12.125 -3.609375 C 7.832031 -6.890625 5.320312 -11.335938 4.59375 -16.953125 L 14 -16.953125 C 14.582031 -14.109375 16.09375 -11.644531 18.53125 -9.5625 C 20.96875 -7.488281 24.265625 -6.453125 28.421875 -6.453125 C 32.285156 -6.453125 35.128906 -7.269531 36.953125 -8.90625 C 38.773438 -10.550781 39.6875 -12.503906 39.6875 -14.765625 C 39.6875 -18.035156 38.5 -20.21875 36.125 -21.3125 C 33.757812 -22.40625 30.425781 -23.390625 26.125 -24.265625 C 23.207031 -24.847656 20.289062 -25.6875 17.375 -26.78125 C 14.46875 -27.875 12.03125 -29.421875 10.0625 -31.421875 C 8.09375 -33.429688 7.109375 -36.078125 7.109375 -39.359375 C 7.109375 -44.097656 8.875 -47.976562 12.40625 -51 C 15.945312 -54.019531 20.738281 -55.53125 26.78125 -55.53125 C 32.539062 -55.53125 37.257812 -54.09375 40.9375 -51.21875 C 44.625 -48.34375 46.757812 -44.242188 47.34375 -38.921875 L 38.265625 -38.921875 C 37.898438 -41.691406 36.710938 -43.859375 34.703125 -45.421875 C 32.703125 -46.992188 30.023438 -47.78125 26.671875 -47.78125 C 23.390625 -47.78125 20.859375 -47.085938 19.078125 -45.703125 C 17.296875 -44.316406 16.40625 -42.492188 16.40625 -40.234375 C 16.40625 -38.046875 17.550781 -36.332031 19.84375 -35.09375 C 22.132812 -33.851562 25.25 -32.796875 29.1875 -31.921875 C 32.539062 -31.191406 35.726562 -30.296875 38.75 -29.234375 C 41.78125 -28.179688 44.257812 -26.613281 46.1875 -24.53125 C 48.125 -22.457031 49.09375 -19.457031 49.09375 -15.53125 C 49.164062 -10.644531 47.320312 -6.613281 43.5625 -3.4375 C 39.8125 -0.269531 34.726562 1.3125 28.3125 1.3125 Z M 28.3125 1.3125 "/></g></g></g><g fill="#010101" fill-opacity="1"><g transform="translate(3299.711445, 108.883233)"><g/></g></g><g fill="#010101" fill-opacity="1"><g transform="translate(3328.684066, 108.883233)"><g><path d="M 7.546875 0 L 7.546875 -54.234375 L 15.859375 -54.234375 L 16.625 -43.84375 C 18.289062 -47.414062 20.835938 -50.253906 24.265625 -52.359375 C 27.691406 -54.472656 31.921875 -55.53125 36.953125 -55.53125 L 36.953125 -45.921875 L 34.4375 -45.921875 C 31.226562 -45.921875 28.273438 -45.351562 25.578125 -44.21875 C 22.878906 -43.09375 20.726562 -41.179688 19.125 -38.484375 C 17.53125 -35.785156 16.734375 -32.066406 16.734375 -27.328125 L 16.734375 0 Z M 7.546875 0 "/></g></g></g><g fill="#010101" fill-opacity="1"><g transform="translate(3366.293986, 108.883233)"><g><path d="M 31.921875 1.3125 C 26.742188 1.3125 22.148438 0.128906 18.140625 -2.234375 C 14.140625 -4.609375 10.988281 -7.90625 8.6875 -12.125 C 6.394531 -16.351562 5.25 -21.347656 5.25 -27.109375 C 5.25 -32.796875 6.378906 -37.769531 8.640625 -42.03125 C 10.898438 -46.300781 14.050781 -49.617188 18.09375 -51.984375 C 22.132812 -54.347656 26.816406 -55.53125 32.140625 -55.53125 C 37.390625 -55.53125 41.925781 -54.347656 45.75 -51.984375 C 49.582031 -49.617188 52.515625 -46.503906 54.546875 -42.640625 C 56.585938 -38.773438 57.609375 -34.617188 57.609375 -30.171875 C 57.609375 -29.367188 57.585938 -28.566406 57.546875 -27.765625 C 57.515625 -26.960938 57.5 -26.050781 57.5 -25.03125 L 14.328125 -25.03125 C 14.546875 -20.875 15.507812 -17.429688 17.21875 -14.703125 C 18.925781 -11.972656 21.070312 -9.914062 23.65625 -8.53125 C 26.25 -7.144531 29.003906 -6.453125 31.921875 -6.453125 C 35.710938 -6.453125 38.882812 -7.328125 41.4375 -9.078125 C 43.988281 -10.828125 45.847656 -13.195312 47.015625 -16.1875 L 56.078125 -16.1875 C 54.628906 -11.15625 51.84375 -6.976562 47.71875 -3.65625 C 43.601562 -0.34375 38.335938 1.3125 31.921875 1.3125 Z M 31.921875 -47.78125 C 27.546875 -47.78125 23.664062 -46.445312 20.28125 -43.78125 C 16.894531 -41.125 14.945312 -37.242188 14.4375 -32.140625 L 48.546875 -32.140625 C 48.328125 -37.023438 46.648438 -40.851562 43.515625 -43.625 C 40.378906 -46.394531 36.515625 -47.78125 31.921875 -47.78125 Z M 31.921875 -47.78125 "/></g></g></g><g fill="#010101" fill-opacity="1"><g transform="translate(3428.503214, 108.883233)"><g><path d="M 25.578125 1.3125 C 21.054688 1.3125 17.300781 0.546875 14.3125 -0.984375 C 11.332031 -2.515625 9.113281 -4.554688 7.65625 -7.109375 C 6.195312 -9.660156 5.46875 -12.429688 5.46875 -15.421875 C 5.46875 -20.953125 7.582031 -25.210938 11.8125 -28.203125 C 16.039062 -31.191406 21.796875 -32.6875 29.078125 -32.6875 L 43.734375 -32.6875 L 43.734375 -33.34375 C 43.734375 -38.082031 42.492188 -41.671875 40.015625 -44.109375 C 37.535156 -46.554688 34.21875 -47.78125 30.0625 -47.78125 C 26.488281 -47.78125 23.410156 -46.882812 20.828125 -45.09375 C 18.242188 -43.3125 16.625 -40.707031 15.96875 -37.28125 L 6.5625 -37.28125 C 6.925781 -41.21875 8.253906 -44.535156 10.546875 -47.234375 C 12.847656 -49.929688 15.707031 -51.988281 19.125 -53.40625 C 22.550781 -54.820312 26.195312 -55.53125 30.0625 -55.53125 C 37.644531 -55.53125 43.347656 -53.507812 47.171875 -49.46875 C 51.003906 -45.425781 52.921875 -40.050781 52.921875 -33.34375 L 52.921875 0 L 44.71875 0 L 44.171875 -9.734375 C 42.640625 -6.671875 40.394531 -4.0625 37.4375 -1.90625 C 34.488281 0.238281 30.535156 1.3125 25.578125 1.3125 Z M 27 -6.453125 C 30.5 -6.453125 33.503906 -7.363281 36.015625 -9.1875 C 38.535156 -11.007812 40.453125 -13.375 41.765625 -16.28125 C 43.078125 -19.195312 43.734375 -22.257812 43.734375 -25.46875 L 43.734375 -25.578125 L 29.84375 -25.578125 C 24.445312 -25.578125 20.640625 -24.644531 18.421875 -22.78125 C 16.203125 -20.925781 15.09375 -18.617188 15.09375 -15.859375 C 15.09375 -13.015625 16.128906 -10.734375 18.203125 -9.015625 C 20.273438 -7.304688 23.207031 -6.453125 27 -6.453125 Z M 27 -6.453125 "/></g></g></g><g fill="#010101" fill-opacity="1"><g transform="translate(3487.651056, 108.883233)"><g><path d="M 7.546875 0 L 7.546875 -78.71875 L 16.734375 -78.71875 L 16.734375 0 Z M 7.546875 0 "/></g></g></g><g fill="#010101" fill-opacity="1"><g transform="translate(3511.922603, 108.883233)"><g><path d="M 13.125 -66.25 C 11.300781 -66.25 9.785156 -66.847656 8.578125 -68.046875 C 7.378906 -69.253906 6.78125 -70.769531 6.78125 -72.59375 C 6.78125 -74.34375 7.378906 -75.800781 8.578125 -76.96875 C 9.785156 -78.132812 11.300781 -78.71875 13.125 -78.71875 C 14.875 -78.71875 16.363281 -78.132812 17.59375 -76.96875 C 18.832031 -75.800781 19.453125 -74.34375 19.453125 -72.59375 C 19.453125 -70.769531 18.832031 -69.253906 17.59375 -68.046875 C 16.363281 -66.847656 14.875 -66.25 13.125 -66.25 Z M 8.53125 0 L 8.53125 -54.234375 L 17.71875 -54.234375 L 17.71875 0 Z M 8.53125 0 "/></g></g></g><g fill="#010101" fill-opacity="1"><g transform="translate(3538.052492, 108.883233)"><g><path d="M 28.96875 0 C 24.007812 0 20.109375 -1.203125 17.265625 -3.609375 C 14.429688 -6.015625 13.015625 -10.351562 13.015625 -16.625 L 13.015625 -46.46875 L 3.609375 -46.46875 L 3.609375 -54.234375 L 13.015625 -54.234375 L 14.21875 -67.234375 L 22.1875 -67.234375 L 22.1875 -54.234375 L 38.15625 -54.234375 L 38.15625 -46.46875 L 22.1875 -46.46875 L 22.1875 -16.625 C 22.1875 -13.195312 22.878906 -10.878906 24.265625 -9.671875 C 25.648438 -8.472656 28.09375 -7.875 31.59375 -7.875 L 37.28125 -7.875 L 37.28125 0 Z M 28.96875 0 "/></g></g></g><g fill="#010101" fill-opacity="1"><g transform="translate(3580.363486, 108.883233)"><g><path d="M 13.453125 24.046875 L 26.890625 -5.25 L 23.71875 -5.25 L 2.1875 -54.234375 L 12.140625 -54.234375 L 30.0625 -12.03125 L 49.09375 -54.234375 L 58.59375 -54.234375 L 23.0625 24.046875 Z M 13.453125 24.046875 "/></g></g></g></g></g><g clip-path="url(#4ae0e76802)"><path fill="#4da7e0" d="M 1273.902344 1061.046875 C 1031.632812 1105.644531 995.476562 1141.800781 950.878906 1384.070312 C 906.277344 1141.800781 870.121094 1105.644531 627.855469 1061.046875 C 870.121094 1016.445312 906.277344 980.289062 950.878906 738.023438 C 995.476562 980.289062 1031.632812 1016.445312 1273.902344 1061.046875 Z M 1273.902344 1061.046875 " fill-opacity="1" fill-rule="nonzero"/></g><g clip-path="url(#90e284f1a2)"><path fill="#4da7e0" d="M 1074.9375 1532.59375 C 833.347656 1577.066406 797.292969 1613.121094 752.820312 1854.707031 C 708.34375 1613.121094 672.292969 1577.066406 430.703125 1532.59375 C 672.292969 1488.117188 708.34375 1452.066406 752.820312 1210.476562 C 797.292969 1452.066406 833.347656 1488.117188 1074.9375 1532.59375 Z M 1074.9375 1532.59375 " fill-opacity="1" fill-rule="nonzero"/></g><g clip-path="url(#5d0ee361aa)"><path fill="#4da7e0" d="M 1530.734375 1721.539062 C 1286.597656 1766.480469 1250.164062 1802.917969 1205.222656 2047.050781 C 1160.277344 1802.917969 1123.84375 1766.480469 879.707031 1721.539062 C 1123.84375 1676.59375 1160.277344 1640.160156 1205.21875 1396.027344 C 1250.164062 1640.160156 1286.597656 1676.59375 1530.734375 1721.539062 Z M 1530.734375 1721.539062 " fill-opacity="1" fill-rule="nonzero"/></g><g mask="url(#0c4f11e881)"><g transform="matrix(1, 0, 0, 1, 1218, 900)"><g clip-path="url(#86be6b1514)"><g clip-path="url(#78e42a9742)"><path fill="#4da7e0" d="M 111 55.726562 C 69.714844 63.328125 63.554688 69.488281 55.953125 110.773438 C 48.355469 69.488281 42.191406 63.328125 0.90625 55.726562 C 42.191406 48.125 48.355469 41.964844 55.953125 0.679688 C 63.554688 41.964844 69.714844 48.125 111 55.726562 Z M 111 55.726562 " fill-opacity="1" fill-rule="nonzero"/></g></g></g></g><g mask="url(#f5e9a8b990)"><g transform="matrix(1, 0, 0, 1, 430, 1210)"><g clip-path="url(#454d59c80b)"><g clip-path="url(#ac36311ee0)"><path fill="#4da7e0" d="M 217.480469 108.867188 C 136.191406 123.832031 124.058594 135.964844 109.09375 217.253906 C 94.128906 135.964844 81.996094 123.832031 0.703125 108.867188 C 81.996094 93.902344 94.128906 81.769531 109.09375 0.476562 C 124.058594 81.769531 136.191406 93.902344 217.480469 108.867188 Z M 217.480469 108.867188 " fill-opacity="1" fill-rule="nonzero"/></g></g></g></g><g mask="url(#a8fcccc4e1)"><g transform="matrix(1, 0, 0, 1, 430, 1677)"><g clip-path="url(#a7170d7ebb)"><g clip-path="url(#d76a62b679)"><path fill="#4da7e0" d="M 219.296875 109.980469 C 137.324219 125.070312 125.089844 137.304688 110 219.277344 C 94.910156 137.304688 82.675781 125.070312 0.703125 109.980469 C 82.675781 94.890625 94.910156 82.65625 110 0.683594 C 125.089844 82.65625 137.324219 94.890625 219.296875 109.980469 Z M 219.296875 109.980469 " fill-opacity="1" fill-rule="nonzero"/></g></g></g></g><g mask="url(#c15351d9a8)"><g transform="matrix(1, 0, 0, 1, 1059, 737)"><g clip-path="url(#c3bcb8b087)"><g clip-path="url(#d0fa64e5e9)"><path fill="#4da7e0" d="M 214.9375 108.050781 C 134.664062 122.832031 122.683594 134.808594 107.90625 215.082031 C 93.128906 134.808594 81.148438 122.832031 0.875 108.050781 C 81.148438 93.273438 93.128906 81.296875 107.90625 1.023438 C 122.683594 81.296875 134.664062 93.273438 214.9375 108.050781 Z M 214.9375 108.050781 " fill-opacity="1" fill-rule="nonzero"/></g></g></g></g><g mask="url(#ce7650f65e)"><g transform="matrix(1, 0, 0, 1, 627, 737)"><g clip-path="url(#e37325cc84)"><g clip-path="url(#21ee35a72c)"><path fill="#4da7e0" d="M 218.546875 109.867188 C 136.910156 124.898438 124.726562 137.078125 109.699219 218.714844 C 94.671875 137.078125 82.488281 124.898438 0.855469 109.867188 C 82.488281 94.839844 94.671875 82.65625 109.699219 1.023438 C 124.726562 82.65625 136.910156 94.839844 218.546875 109.867188 Z M 218.546875 109.867188 " fill-opacity="1" fill-rule="nonzero"/></g></g></g></g><g mask="url(#ac4ba6aee9)"><g transform="matrix(1, 0, 0, 1, 1487, 1779)"><g clip-path="url(#81a1e8c62e)"><g clip-path="url(#93cad22b22)"><path fill="#4da7e0" d="M 109.769531 54.921875 C 68.828125 62.457031 62.714844 68.566406 55.179688 109.511719 C 47.640625 68.566406 41.53125 62.457031 0.589844 54.921875 C 41.53125 47.382812 47.640625 41.273438 55.179688 0.332031 C 62.714844 41.273438 68.828125 47.382812 109.769531 54.921875 Z M 109.769531 54.921875 " fill-opacity="1" fill-rule="nonzero"/></g></g></g></g><g mask="url(#cc1eb83214)"><g transform="matrix(1, 0, 0, 1, 1328, 1833)"><g clip-path="url(#495a4e8ef9)"><g clip-path="url(#9213f73edc)"><path fill="#4da7e0" d="M 214.171875 107.507812 C 134.234375 122.222656 122.304688 134.152344 107.589844 214.085938 C 92.875 134.152344 80.945312 122.222656 1.011719 107.507812 C 80.945312 92.792969 92.875 80.863281 107.589844 0.929688 C 122.304688 80.863281 134.234375 92.792969 214.171875 107.507812 Z M 214.171875 107.507812 " fill-opacity="1" fill-rule="nonzero"/></g></g></g></g><g mask="url(#3b20872297)"><g transform="matrix(1, 0, 0, 1, 1218, 682)"><g clip-path="url(#e1f6a6230a)"><g clip-path="url(#1823002221)"><path fill="#4da7e0" d="M 111 56.015625 C 69.714844 63.617188 63.554688 69.777344 55.953125 111.0625 C 48.355469 69.777344 42.191406 63.617188 0.90625 56.015625 C 42.191406 48.417969 48.355469 42.257812 55.953125 0.972656 C 63.554688 42.257812 69.714844 48.417969 111 56.015625 Z M 111 56.015625 " fill-opacity="1" fill-rule="nonzero"/></g></g></g></g><g mask="url(#a76cd89726)"><g transform="matrix(1, 0, 0, 1, 1486, 1991)"><g clip-path="url(#3054446759)"><g clip-path="url(#3bbf7c4e28)"><path fill="#4da7e0" d="M 111.679688 56.097656 C 70.054688 63.761719 63.84375 69.972656 56.179688 111.597656 C 48.519531 69.972656 42.304688 63.761719 0.683594 56.097656 C 42.304688 48.4375 48.519531 42.222656 56.179688 0.601562 C 63.84375 42.222656 70.054688 48.4375 111.679688 56.097656 Z M 111.679688 56.097656 " fill-opacity="1" fill-rule="nonzero"/></g></g></g></g><g transform="matrix(1, 0, 0, 1, 1080, 1096)"><g clip-path="url(#357787ee93)"><g fill="#092e3f" fill-opacity="1"><g transform="translate(2.086273, 334.231362)"><g><path d="M 35.0625 -253.03125 L 228.8125 -253.03125 C 256.53125 -253.03125 276.410156 -246.765625 288.453125 -234.234375 C 300.503906 -221.703125 306.53125 -203.269531 306.53125 -178.9375 L 306.53125 -151.828125 C 306.53125 -127.484375 300.503906 -108.800781 288.453125 -95.78125 C 276.410156 -82.769531 256.53125 -76.265625 228.8125 -76.265625 L 79.171875 -76.265625 L 79.171875 -7.953125 C 79.171875 -2.648438 76.519531 0 71.21875 0 L 32.171875 0 C 26.867188 0 24.21875 -2.648438 24.21875 -7.953125 L 24.21875 -242.1875 C 24.21875 -249.414062 27.832031 -253.03125 35.0625 -253.03125 Z M 79.171875 -126.15625 L 217.609375 -126.15625 C 229.898438 -126.15625 238.578125 -128.6875 243.640625 -133.75 C 248.703125 -138.8125 251.234375 -146.644531 251.234375 -157.25 L 251.234375 -170.984375 C 251.234375 -181.828125 248.703125 -189.78125 243.640625 -194.84375 C 238.578125 -199.90625 229.898438 -202.4375 217.609375 -202.4375 L 83.859375 -202.4375 C 80.734375 -202.4375 79.171875 -200.988281 79.171875 -198.09375 Z M 79.171875 -126.15625 "/></g></g></g><g fill="#092e3f" fill-opacity="1"><g transform="translate(320.554123, 334.231362)"><g><path d="M 35.0625 -253.03125 L 228.8125 -253.03125 C 255.8125 -253.03125 275.515625 -246.945312 287.921875 -234.78125 C 300.328125 -222.613281 306.53125 -204 306.53125 -178.9375 L 306.53125 -157.96875 C 306.53125 -137 302.253906 -120.367188 293.703125 -108.078125 C 285.148438 -95.785156 271.957031 -87.832031 254.125 -84.21875 L 314.484375 -9.40625 C 315.929688 -7.71875 316.234375 -5.726562 315.390625 -3.4375 C 314.546875 -1.144531 312.679688 0 309.796875 0 L 261.359375 0 C 258.460938 0 256.347656 -0.359375 255.015625 -1.078125 C 253.691406 -1.804688 252.429688 -3.015625 251.234375 -4.703125 L 193.75 -78.078125 L 79.171875 -78.078125 L 79.171875 -7.953125 C 79.171875 -2.648438 76.519531 0 71.21875 0 L 32.171875 0 C 26.867188 0 24.21875 -2.648438 24.21875 -7.953125 L 24.21875 -242.1875 C 24.21875 -249.414062 27.832031 -253.03125 35.0625 -253.03125 Z M 79.171875 -125.796875 L 217.609375 -125.796875 C 229.898438 -125.796875 238.578125 -128.144531 243.640625 -132.84375 C 248.703125 -137.539062 251.234375 -145.3125 251.234375 -156.15625 L 251.234375 -171.34375 C 251.234375 -182.425781 248.640625 -190.378906 243.453125 -195.203125 C 238.273438 -200.023438 229.660156 -202.4375 217.609375 -202.4375 L 83.859375 -202.4375 C 80.734375 -202.4375 79.171875 -201.109375 79.171875 -198.453125 Z M 79.171875 -125.796875 "/></g></g></g><g fill="#092e3f" fill-opacity="1"><g transform="translate(641.190881, 334.231362)"><g><path d="M 122.546875 -253.03125 L 233.875 -253.03125 C 258.457031 -253.03125 278.160156 -249.894531 292.984375 -243.625 C 307.804688 -237.363281 318.53125 -227.242188 325.15625 -213.265625 C 331.78125 -199.296875 335.09375 -180.742188 335.09375 -157.609375 L 335.09375 -95.4375 C 335.09375 -72.300781 331.78125 -53.742188 325.15625 -39.765625 C 318.53125 -25.785156 307.804688 -15.660156 292.984375 -9.390625 C 278.160156 -3.128906 258.457031 0 233.875 0 L 122.546875 0 C 97.960938 0 78.257812 -3.128906 63.4375 -9.390625 C 48.613281 -15.660156 37.890625 -25.84375 31.265625 -39.9375 C 24.640625 -54.039062 21.328125 -72.539062 21.328125 -95.4375 L 21.328125 -157.609375 C 21.328125 -180.742188 24.640625 -199.296875 31.265625 -213.265625 C 37.890625 -227.242188 48.613281 -237.363281 63.4375 -243.625 C 78.257812 -249.894531 97.960938 -253.03125 122.546875 -253.03125 Z M 76.265625 -153.625 L 76.265625 -99.40625 C 76.265625 -86.875 77.648438 -77.050781 80.421875 -69.9375 C 83.203125 -62.832031 88.082031 -57.894531 95.0625 -55.125 C 102.050781 -52.351562 111.8125 -50.96875 124.34375 -50.96875 L 231.71875 -50.96875 C 244.25 -50.96875 254.003906 -52.351562 260.984375 -55.125 C 267.972656 -57.894531 272.851562 -62.832031 275.625 -69.9375 C 278.394531 -77.050781 279.78125 -86.875 279.78125 -99.40625 L 279.78125 -153.625 C 279.78125 -166.40625 278.394531 -176.285156 275.625 -183.265625 C 272.851562 -190.253906 267.972656 -195.132812 260.984375 -197.90625 C 254.003906 -200.675781 244.25 -202.0625 231.71875 -202.0625 L 124.34375 -202.0625 C 111.8125 -202.0625 102.050781 -200.675781 95.0625 -197.90625 C 88.082031 -195.132812 83.203125 -190.253906 80.421875 -183.265625 C 77.648438 -176.285156 76.265625 -166.40625 76.265625 -153.625 Z M 76.265625 -153.625 "/></g></g></g><g fill="#092e3f" fill-opacity="1"><g transform="translate(986.770064, 334.231362)"><g><path d="M 255.203125 -253.03125 L 305.453125 -253.03125 C 308.828125 -253.03125 310.691406 -251.882812 311.046875 -249.59375 C 311.410156 -247.3125 310.75 -245.328125 309.0625 -243.640625 L 199.171875 -130.5 L 314.125 -9.40625 C 315.8125 -7.71875 316.472656 -5.726562 316.109375 -3.4375 C 315.753906 -1.144531 313.890625 0 310.515625 0 L 258.09375 0 C 255.207031 0 252.921875 -0.421875 251.234375 -1.265625 C 249.546875 -2.109375 247.859375 -3.375 246.171875 -5.0625 L 160.140625 -96.15625 L 73.75 -5.0625 C 72.0625 -3.375 70.429688 -2.109375 68.859375 -1.265625 C 67.296875 -0.421875 65.066406 0 62.171875 0 L 11.5625 0 C 8.4375 0 6.691406 -1.144531 6.328125 -3.4375 C 5.960938 -5.726562 6.625 -7.71875 8.3125 -9.40625 L 126.15625 -131.9375 L 19.875 -243.640625 C 18.1875 -245.328125 17.582031 -247.3125 18.0625 -249.59375 C 18.550781 -251.882812 20.363281 -253.03125 23.5 -253.03125 L 76.265625 -253.03125 C 79.160156 -253.03125 81.453125 -252.609375 83.140625 -251.765625 C 84.828125 -250.929688 86.394531 -249.671875 87.84375 -247.984375 L 165.203125 -166.28125 L 243.640625 -247.984375 C 245.085938 -249.671875 246.65625 -250.929688 248.34375 -251.765625 C 250.03125 -252.609375 252.316406 -253.03125 255.203125 -253.03125 Z M 255.203125 -253.03125 "/></g></g></g><g fill="#092e3f" fill-opacity="1"><g transform="translate(1309.214245, 334.231362)"><g><path d="M 32.171875 -253.03125 L 71.21875 -253.03125 C 76.519531 -253.03125 79.171875 -250.382812 79.171875 -245.09375 L 79.171875 -7.953125 C 79.171875 -2.648438 76.519531 0 71.21875 0 L 32.171875 0 C 26.867188 0 24.21875 -2.648438 24.21875 -7.953125 L 24.21875 -245.09375 C 24.21875 -250.382812 26.867188 -253.03125 32.171875 -253.03125 Z M 32.171875 -253.03125 "/></g></g></g><g fill="#092e3f" fill-opacity="1"><g transform="translate(1412.598839, 334.231362)"><g><path d="M 55.671875 -253.03125 L 96.515625 -253.03125 C 103.742188 -253.03125 109.585938 -252.367188 114.046875 -251.046875 C 118.503906 -249.722656 122.359375 -247.070312 125.609375 -243.09375 C 128.867188 -239.125 132.0625 -233.28125 135.1875 -225.5625 L 209.296875 -52.046875 C 210.503906 -49.878906 212.191406 -48.796875 214.359375 -48.796875 L 218.703125 -48.796875 C 221.347656 -48.796875 223.035156 -49.878906 223.765625 -52.046875 L 297.5 -225.5625 C 300.632812 -233.28125 303.707031 -239.125 306.71875 -243.09375 C 309.726562 -247.070312 313.519531 -249.722656 318.09375 -251.046875 C 322.675781 -252.367188 328.582031 -253.03125 335.8125 -253.03125 L 375.9375 -253.03125 C 388.46875 -253.03125 396.898438 -250.316406 401.234375 -244.890625 C 405.578125 -239.472656 407.75 -229.65625 407.75 -215.4375 L 407.75 -7.953125 C 407.75 -2.648438 404.976562 0 399.4375 0 L 361.484375 0 C 356.179688 0 353.53125 -2.648438 353.53125 -7.953125 L 353.53125 -196.640625 C 353.53125 -199.054688 352.6875 -200.265625 351 -200.265625 L 347.75 -200.265625 C 345.09375 -200.265625 343.40625 -199.300781 342.6875 -197.375 L 272.921875 -35.421875 C 267.617188 -21.929688 261.53125 -12.65625 254.65625 -7.59375 C 247.789062 -2.53125 238.457031 0 226.65625 0 L 206.046875 0 C 194.234375 0 184.953125 -2.53125 178.203125 -7.59375 C 171.460938 -12.65625 165.320312 -21.929688 159.78125 -35.421875 L 89.28125 -197.375 C 88.320312 -199.300781 86.757812 -200.265625 84.59375 -200.265625 L 81.328125 -200.265625 C 79.160156 -200.265625 78.078125 -199.054688 78.078125 -196.640625 L 78.078125 -7.953125 C 78.078125 -2.648438 75.425781 0 70.125 0 L 32.171875 0 C 26.867188 0 24.21875 -2.648438 24.21875 -7.953125 L 24.21875 -215.4375 C 24.21875 -229.65625 26.328125 -239.472656 30.546875 -244.890625 C 34.765625 -250.316406 43.140625 -253.03125 55.671875 -253.03125 Z M 55.671875 -253.03125 "/></g></g></g><g fill="#092e3f" fill-opacity="1"><g transform="translate(1844.21128, 334.231362)"><g><path d="M 163.03125 -253.03125 L 184.359375 -253.03125 C 193.753906 -253.03125 201.523438 -251.222656 207.671875 -247.609375 C 213.816406 -243.992188 219.898438 -236.644531 225.921875 -225.5625 L 345.578125 -8.3125 C 348.472656 -2.769531 347.023438 0 341.234375 0 L 295.328125 0 C 290.992188 0 288.222656 -1.445312 287.015625 -4.34375 L 263.15625 -48.4375 L 90.015625 -48.4375 L 66.515625 -4.34375 C 64.828125 -1.445312 62.054688 0 58.203125 0 L 10.84375 0 C 5.300781 0 3.851562 -2.769531 6.5 -8.3125 L 125.078125 -225.5625 C 130.859375 -236.644531 136.757812 -243.992188 142.78125 -247.609375 C 148.8125 -251.222656 155.5625 -253.03125 163.03125 -253.03125 Z M 115.3125 -95.4375 L 237.5 -95.4375 L 181.46875 -199.171875 C 180.5 -200.859375 179.050781 -201.703125 177.125 -201.703125 L 174.953125 -201.703125 C 173.265625 -201.703125 171.941406 -200.859375 170.984375 -199.171875 Z M 115.3125 -95.4375 "/></g></g></g><g fill="#092e3f" fill-opacity="1"><g transform="translate(2196.658746, 334.231362)"><g/></g></g><g fill="#092e3f" fill-opacity="1"><g transform="translate(2317.756012, 334.231362)"><g><path d="M 56.390625 -253.03125 L 88.921875 -253.03125 C 97.597656 -253.03125 104.285156 -252.367188 108.984375 -251.046875 C 113.679688 -249.722656 117.535156 -247.492188 120.546875 -244.359375 C 123.566406 -241.234375 127.003906 -237.019531 130.859375 -231.71875 L 263.890625 -55.3125 C 264.847656 -53.625 266.410156 -52.78125 268.578125 -52.78125 L 271.84375 -52.78125 C 273.769531 -52.78125 274.734375 -53.984375 274.734375 -56.390625 L 274.734375 -245.09375 C 274.734375 -250.382812 277.382812 -253.03125 282.6875 -253.03125 L 321.359375 -253.03125 C 326.660156 -253.03125 329.3125 -250.382812 329.3125 -245.09375 L 329.3125 -37.59375 C 329.3125 -23.375 326.71875 -13.550781 321.53125 -8.125 C 316.351562 -2.707031 308.101562 0 296.78125 0 L 264.609375 0 C 255.929688 0 249.242188 -0.660156 244.546875 -1.984375 C 239.847656 -3.304688 236.050781 -5.535156 233.15625 -8.671875 C 230.257812 -11.804688 226.882812 -16.023438 223.03125 -21.328125 L 89.640625 -197.734375 C 88.203125 -199.421875 86.640625 -200.265625 84.953125 -200.265625 L 81.703125 -200.265625 C 79.765625 -200.265625 78.796875 -199.054688 78.796875 -196.640625 L 78.796875 -7.953125 C 78.796875 -2.648438 76.144531 0 70.84375 0 L 32.171875 0 C 26.867188 0 24.21875 -2.648438 24.21875 -7.953125 L 24.21875 -215.4375 C 24.21875 -229.65625 26.75 -239.472656 31.8125 -244.890625 C 36.875 -250.316406 45.066406 -253.03125 56.390625 -253.03125 Z M 56.390625 -253.03125 "/></g></g></g><g fill="#092e3f" fill-opacity="1"><g transform="translate(2671.2878, 334.231362)"><g><path d="M 122.546875 -253.03125 L 281.59375 -253.03125 C 286.894531 -253.03125 289.546875 -250.382812 289.546875 -245.09375 L 289.546875 -210.015625 C 289.546875 -204.710938 286.894531 -202.0625 281.59375 -202.0625 L 122.90625 -202.0625 C 110.613281 -202.0625 101.03125 -200.675781 94.15625 -197.90625 C 87.289062 -195.132812 82.53125 -190.253906 79.875 -183.265625 C 77.226562 -176.285156 75.90625 -166.40625 75.90625 -153.625 L 75.90625 -151.828125 L 279.421875 -151.828125 C 284.722656 -151.828125 287.375 -149.175781 287.375 -143.875 L 287.375 -111.703125 C 287.375 -106.398438 284.722656 -103.75 279.421875 -103.75 L 75.90625 -103.75 L 75.90625 -99.40625 C 75.90625 -86.875 77.226562 -77.050781 79.875 -69.9375 C 82.53125 -62.832031 87.289062 -57.894531 94.15625 -55.125 C 101.03125 -52.351562 110.613281 -50.96875 122.90625 -50.96875 L 281.59375 -50.96875 C 286.894531 -50.96875 289.546875 -48.316406 289.546875 -43.015625 L 289.546875 -7.953125 C 289.546875 -2.648438 286.894531 0 281.59375 0 L 122.546875 0 C 97.960938 0 78.257812 -3.128906 63.4375 -9.390625 C 48.613281 -15.660156 37.890625 -25.84375 31.265625 -39.9375 C 24.640625 -54.039062 21.328125 -72.539062 21.328125 -95.4375 L 21.328125 -157.609375 C 21.328125 -180.742188 24.640625 -199.296875 31.265625 -213.265625 C 37.890625 -227.242188 48.613281 -237.363281 63.4375 -243.625 C 78.257812 -249.894531 97.960938 -253.03125 122.546875 -253.03125 Z M 122.546875 -253.03125 "/></g></g></g><g fill="#092e3f" fill-opacity="1"><g transform="translate(2978.549684, 334.231362)"><g><path d="M 255.203125 -253.03125 L 305.453125 -253.03125 C 308.828125 -253.03125 310.691406 -251.882812 311.046875 -249.59375 C 311.410156 -247.3125 310.75 -245.328125 309.0625 -243.640625 L 199.171875 -130.5 L 314.125 -9.40625 C 315.8125 -7.71875 316.472656 -5.726562 316.109375 -3.4375 C 315.753906 -1.144531 313.890625 0 310.515625 0 L 258.09375 0 C 255.207031 0 252.921875 -0.421875 251.234375 -1.265625 C 249.546875 -2.109375 247.859375 -3.375 246.171875 -5.0625 L 160.140625 -96.15625 L 73.75 -5.0625 C 72.0625 -3.375 70.429688 -2.109375 68.859375 -1.265625 C 67.296875 -0.421875 65.066406 0 62.171875 0 L 11.5625 0 C 8.4375 0 6.691406 -1.144531 6.328125 -3.4375 C 5.960938 -5.726562 6.625 -7.71875 8.3125 -9.40625 L 126.15625 -131.9375 L 19.875 -243.640625 C 18.1875 -245.328125 17.582031 -247.3125 18.0625 -249.59375 C 18.550781 -251.882812 20.363281 -253.03125 23.5 -253.03125 L 76.265625 -253.03125 C 79.160156 -253.03125 81.453125 -252.609375 83.140625 -251.765625 C 84.828125 -250.929688 86.394531 -249.671875 87.84375 -247.984375 L 165.203125 -166.28125 L 243.640625 -247.984375 C 245.085938 -249.671875 246.65625 -250.929688 248.34375 -251.765625 C 250.03125 -252.609375 252.316406 -253.03125 255.203125 -253.03125 Z M 255.203125 -253.03125 "/></g></g></g><g fill="#092e3f" fill-opacity="1"><g transform="translate(3300.993866, 334.231362)"><g><path d="M 31.453125 -253.03125 L 70.484375 -253.03125 C 75.785156 -253.03125 78.4375 -250.382812 78.4375 -245.09375 L 78.4375 -100.859375 C 78.4375 -88.085938 79.882812 -78.082031 82.78125 -70.84375 C 85.675781 -63.613281 90.613281 -58.550781 97.59375 -55.65625 C 104.582031 -52.769531 114.222656 -51.328125 126.515625 -51.328125 L 226.65625 -51.328125 C 239.1875 -51.328125 248.882812 -52.769531 255.75 -55.65625 C 262.613281 -58.550781 267.429688 -63.613281 270.203125 -70.84375 C 272.972656 -78.082031 274.359375 -88.085938 274.359375 -100.859375 L 274.359375 -245.09375 C 274.359375 -250.382812 277.007812 -253.03125 282.3125 -253.03125 L 321.71875 -253.03125 C 327.019531 -253.03125 329.671875 -250.382812 329.671875 -245.09375 L 329.671875 -95.4375 C 329.671875 -72.300781 326.359375 -53.742188 319.734375 -39.765625 C 313.109375 -25.785156 302.382812 -15.660156 287.5625 -9.390625 C 272.738281 -3.128906 253.035156 0 228.453125 0 L 124.71875 0 C 100.132812 0 80.429688 -3.128906 65.609375 -9.390625 C 50.785156 -15.660156 40.0625 -25.785156 33.4375 -39.765625 C 26.8125 -53.742188 23.5 -72.300781 23.5 -95.4375 L 23.5 -245.09375 C 23.5 -250.382812 26.148438 -253.03125 31.453125 -253.03125 Z M 31.453125 -253.03125 "/></g></g></g><g fill="#092e3f" fill-opacity="1"><g transform="translate(3654.164358, 334.231362)"><g><path d="M 83.5 -253.03125 L 275.09375 -253.03125 C 280.394531 -253.03125 283.046875 -250.382812 283.046875 -245.09375 L 283.046875 -210.015625 C 283.046875 -204.710938 280.394531 -202.0625 275.09375 -202.0625 L 93.984375 -202.0625 C 81.210938 -202.0625 74.828125 -195.554688 74.828125 -182.546875 L 74.828125 -170.265625 C 74.828125 -157.972656 81.210938 -151.828125 93.984375 -151.828125 L 229.1875 -151.828125 C 249.425781 -151.828125 265.023438 -146.28125 275.984375 -135.1875 C 286.953125 -124.101562 292.4375 -108.441406 292.4375 -88.203125 L 292.4375 -58.921875 C 292.4375 -40.367188 286.953125 -25.910156 275.984375 -15.546875 C 265.023438 -5.179688 249.179688 0 228.453125 0 L 28.203125 0 C 22.898438 0 20.25 -2.648438 20.25 -7.953125 L 20.25 -43.015625 C 20.25 -48.316406 22.898438 -50.96875 28.203125 -50.96875 L 217.96875 -50.96875 C 230.75 -50.96875 237.140625 -57.472656 237.140625 -70.484375 L 237.140625 -85.3125 C 237.140625 -91.820312 235.691406 -96.519531 232.796875 -99.40625 C 229.898438 -102.300781 225.082031 -103.75 218.34375 -103.75 L 82.78125 -103.75 C 62.539062 -103.75 46.992188 -109.289062 36.140625 -120.375 C 25.296875 -131.457031 19.875 -147.125 19.875 -167.375 L 19.875 -194.109375 C 19.875 -212.671875 25.296875 -227.128906 36.140625 -237.484375 C 46.992188 -247.847656 62.78125 -253.03125 83.5 -253.03125 Z M 83.5 -253.03125 "/></g></g></g></g></g></svg>