<?xml version="1.0" standalone="no"?>
<!DOCTYPE svg PUBLIC "-//W3C//DTD SVG 1.1//EN" "http://www.w3.org/Graphics/SVG/1.1/DTD/svg11.dtd">
<svg xmlns="http://www.w3.org/2000/svg" id="Calque_1" data-name="Calque 1" viewBox="0 0 790.9 183.54" width="790.9000244140625" height="183.5399932861328"><title>Logo Marle white</title><path d="M45.2,161a24.19,24.19,0,0,1-1.66,9A21.45,21.45,0,0,1,39,177.12a21.15,21.15,0,0,1-7,4.7,22.44,22.44,0,0,1-8.76,1.72,23.88,23.88,0,0,1-9.14-1.75,22.35,22.35,0,0,1-12.27-12,22.8,22.8,0,0,1,0-17.78,22,22,0,0,1,4.88-7.16A22.59,22.59,0,0,1,14,140.1a23.58,23.58,0,0,1,9.08-1.76,24.42,24.42,0,0,1,10.27,2.2,21.69,21.69,0,0,1,8,6L35,152.36a16.12,16.12,0,0,0-5.35-4.22,14.78,14.78,0,0,0-6.54-1.47,13.45,13.45,0,0,0-12.74,8.61,16,16,0,0,0,0,11.36,13.61,13.61,0,0,0,2.95,4.53,13.4,13.4,0,0,0,4.47,3,14.12,14.12,0,0,0,5.54,1.1,12.73,12.73,0,0,0,8-2.57,10.8,10.8,0,0,0,4.17-6.57h-13v-7.89H45.2Z" fill="#fff" opacity="0.5"/><path d="M212.33,146.86H200.81v11.77h11.52a7.13,7.13,0,0,0,4.91-1.63,5.83,5.83,0,0,0,0-8.52,7.18,7.18,0,0,0-4.91-1.62m-20.6,36V139h21.41a18.21,18.21,0,0,1,6.11,1,14.48,14.48,0,0,1,4.78,2.79,12.52,12.52,0,0,1,3.13,4.29,13.28,13.28,0,0,1,1.13,5.51,12.27,12.27,0,0,1-2.35,7.38,13.91,13.91,0,0,1-6.23,4.82l9.7,18H219.27l-8.57-16.78h-9.89v16.78Z" fill="#fff" opacity="0.5"/><path d="M413,160.94a14.78,14.78,0,0,0-1.07-5.66,14,14,0,0,0-2.91-4.51,13.55,13.55,0,0,0-4.41-3,14.07,14.07,0,0,0-5.51-1.09,13.82,13.82,0,0,0-5.48,1.09,13.63,13.63,0,0,0-4.38,3,13.84,13.84,0,0,0-2.91,4.51,15.43,15.43,0,0,0,0,11.29,13.77,13.77,0,0,0,2.91,4.54,13.32,13.32,0,0,0,4.38,3,13.64,13.64,0,0,0,5.48,1.09,13.89,13.89,0,0,0,5.51-1.09,13.24,13.24,0,0,0,4.41-3,13.93,13.93,0,0,0,2.91-4.54,14.85,14.85,0,0,0,1.07-5.63m9.32,0a21.75,21.75,0,0,1-1.82,8.86,22.5,22.5,0,0,1-4.91,7.2,22.86,22.86,0,0,1-7.35,4.79,24.59,24.59,0,0,1-18.22,0,22.36,22.36,0,0,1-12.27-12,22.59,22.59,0,0,1,0-17.72,22.3,22.3,0,0,1,12.27-12,24.59,24.59,0,0,1,18.22,0,22.84,22.84,0,0,1,7.35,4.78,22.5,22.5,0,0,1,4.91,7.2,21.79,21.79,0,0,1,1.82,8.86" fill="#fff" opacity="0.5"/><path d="M607.68,163.88A22.81,22.81,0,0,1,606.3,172a16.69,16.69,0,0,1-10,10.11,23.94,23.94,0,0,1-16,0,16.89,16.89,0,0,1-6.1-3.91,17.21,17.21,0,0,1-3.88-6.17,22.75,22.75,0,0,1-1.38-8.14V139h9.07v24.85a11.49,11.49,0,0,0,2.85,8.14,9.79,9.79,0,0,0,7.55,3.07,9.56,9.56,0,0,0,7.47-3.07,11.64,11.64,0,0,0,2.79-8.14V139h9.08Z" fill="#fff" opacity="0.5"/><path d="M775.18,146.86H763.29v11.95h11.89a6.73,6.73,0,0,0,4.73-1.63,5.54,5.54,0,0,0,1.78-4.31,5.64,5.64,0,0,0-1.78-4.35,6.66,6.66,0,0,0-4.73-1.66m-21,36V139h22a16.77,16.77,0,0,1,5.92,1,14.2,14.2,0,0,1,4.66,2.85,13,13,0,0,1,3,4.35,13.83,13.83,0,0,1,1.09,5.54,13.22,13.22,0,0,1-1.09,5.42,12.84,12.84,0,0,1-3.07,4.29,13.93,13.93,0,0,1-4.66,2.81,16.74,16.74,0,0,1-5.89,1H763.29v16.53Z" fill="#fff" opacity="0.5"/><path d="M786.63,92.23A4.27,4.27,0,0,0,790.89,88V81.74a4.17,4.17,0,0,0-1.12-2.88l-.13-.13a4.12,4.12,0,0,0-3-1.25" fill="#fff"/><path d="M80.59,45.34a3.47,3.47,0,0,0,5.92,2.45L94.27,40a7.47,7.47,0,0,0,2.2-5.32v-29A5.56,5.56,0,0,0,93,.45a5.63,5.63,0,0,0-6.19,1.23l-86,86a2.68,2.68,0,0,0,1.89,4.57h11.5a9.81,9.81,0,0,0,7-2.89L80.59,29.91Z" fill="#fff"/><path d="M789.77,78.86l-.13-.13a4.12,4.12,0,0,0-3-1.25H722.22V51.67h39a4.22,4.22,0,0,0,3-1.12,4,4,0,0,0,1.29-3.15V41.18a4.08,4.08,0,0,0-1.25-3,4.19,4.19,0,0,0-3-1.25h-39V14.76h63.55a4.12,4.12,0,0,0,3-1.26,4.06,4.06,0,0,0,1.25-3V4.27a4,4,0,0,0-1.26-3,4.09,4.09,0,0,0-3-1.26H710.82a4.1,4.1,0,0,0-3,1.27,4.11,4.11,0,0,0-1.23,3V88a4.12,4.12,0,0,0,1.24,3,4.07,4.07,0,0,0,3,1.25h75.81A4.28,4.28,0,0,0,790.9,88V81.74a4.23,4.23,0,0,0-1.13-2.88" fill="#fff"/><path d="M262.82,56.66l20.56-40.31,20.67,40.31Zm75.1,30.83L293.56,3.94a8.52,8.52,0,0,0-2.66-2.77A6.28,6.28,0,0,0,287.46,0h-7.73a6.25,6.25,0,0,0-3.46,1.19,6.34,6.34,0,0,0-2.4,2.7L230.13,88a5.47,5.47,0,0,0-.38,1.71c0,1.62,1,2.55,2.76,2.55h9.23a4.82,4.82,0,0,0,2.6-.85,4.43,4.43,0,0,0,1.76-1.94l9.52-18.67h55.93l9.95,18.62a5,5,0,0,0,4.37,2.84h9.87c1.76,0,2.77-.93,2.77-2.55a8.3,8.3,0,0,0-.59-2.19" fill="#fff"/><path d="M421,42.28V14.76h40.16a13.79,13.79,0,0,1,9.88,3.9,12.68,12.68,0,0,1,4.1,9.65,13.35,13.35,0,0,1-14,14Zm72.13,45.21-23.8-32.14,1.82-.62A28.12,28.12,0,0,0,483.94,46a27.1,27.1,0,0,0,6.15-17.89,27.3,27.3,0,0,0-2.19-11A29.85,29.85,0,0,0,482,8.23a27.47,27.47,0,0,0-8.9-6A28.67,28.67,0,0,0,461.79,0H409a4.2,4.2,0,0,0-3,1.26,4.11,4.11,0,0,0-1.25,3V88A4.08,4.08,0,0,0,406,91a4.16,4.16,0,0,0,3,1.25h7.72a4.15,4.15,0,0,0,3-1.25A4.09,4.09,0,0,0,421,88V56.39H451.4l25.28,34a4.19,4.19,0,0,0,1.41,1.31,3.39,3.39,0,0,0,1.73.53h11.8A2,2,0,0,0,494,90.11a5.05,5.05,0,0,0-.84-2.62" fill="#fff"/><path d="M575.17,1.24a4.1,4.1,0,0,0-3-1.24h-7.72a4.1,4.1,0,0,0-3,1.25,4,4,0,0,0-1.26,3V88a4,4,0,0,0,1.24,3,4.11,4.11,0,0,0,3,1.26h71.68A4.27,4.27,0,0,0,640.39,88V81.74a4.18,4.18,0,0,0-1.26-3,4.07,4.07,0,0,0-3-1.25H576.44V4.27a4.17,4.17,0,0,0-1.27-3" fill="#fff"/><path d="M160,.44a5.63,5.63,0,0,0-6.19,1.23l-86,86a2.68,2.68,0,0,0,1.88,4.57H81.29a9.64,9.64,0,0,0,6.88-2.85l59.47-59.47V88.4a3.84,3.84,0,0,0,3.84,3.83h8.22a3.84,3.84,0,0,0,3.83-3.83V5.69A5.6,5.6,0,0,0,160,.44" fill="#fff"/></svg>